<?xml version="1.0" encoding="UTF-8"?>
<svg version="1.1" xmlns="http://www.w3.org/2000/svg" width="512" height="512">
<path d="M0 0 C1.46979891 0.00138269 1.46979891 0.00138269 2.96929073 0.00279331 C4.64997646 0.00073132 4.64997646 0.00073132 6.36461544 -0.00137234 C8.22469486 0.00402058 8.22469486 0.00402058 10.12235165 0.00952244 C12.06840801 0.0093034 12.06840801 0.0093034 14.05377865 0.00907993 C17.62180117 0.00879197 21.18979036 0.01468851 24.75780511 0.02165389 C28.48274808 0.02788762 32.20769174 0.02849124 35.93263912 0.0296793 C42.99101551 0.03279256 50.04937648 0.04100587 57.10774606 0.05102879 C66.64243135 0.06427538 76.17712082 0.06968988 85.71181297 0.07553101 C100.7411675 0.08494577 115.77048949 0.10486472 130.79984188 0.12304783 C130.79984188 22.23304783 130.79984188 44.34304783 130.79984188 67.12304783 C141.68984188 67.12304783 152.57984188 67.12304783 163.79984188 67.12304783 C163.79984188 88.90304783 163.79984188 110.68304783 163.79984188 133.12304783 C185.57984188 133.12304783 207.35984188 133.12304783 229.79984188 133.12304783 C229.79984188 111.34304783 229.79984188 89.56304783 229.79984188 67.12304783 C240.68984188 67.12304783 251.57984188 67.12304783 262.79984188 67.12304783 C262.79984188 45.01304783 262.79984188 22.90304783 262.79984188 0.12304783 C306.68984188 0.12304783 350.57984188 0.12304783 395.79984188 0.12304783 C395.79984188 22.23304783 395.79984188 44.34304783 395.79984188 67.12304783 C406.68984188 67.12304783 417.57984188 67.12304783 428.79984188 67.12304783 C428.79984188 111.01304783 428.79984188 154.90304783 428.79984188 200.12304783 C407.01984188 200.12304783 385.23984188 200.12304783 362.79984188 200.12304783 C362.79984188 222.23304783 362.79984188 244.34304783 362.79984188 267.12304783 C341.01984188 267.12304783 319.23984188 267.12304783 296.79984188 267.12304783 C296.79984188 288.90304783 296.79984188 310.68304783 296.79984188 333.12304783 C275.01984188 333.12304783 253.23984188 333.12304783 230.79984188 333.12304783 C230.79984188 354.90304783 230.79984188 376.68304783 230.79984188 399.12304783 C208.35984188 399.12304783 185.91984188 399.12304783 162.79984188 399.12304783 C162.79984188 377.34304783 162.79984188 355.56304783 162.79984188 333.12304783 C141.01984188 333.12304783 119.23984188 333.12304783 96.79984188 333.12304783 C96.79984188 311.34304783 96.79984188 289.56304783 96.79984188 267.12304783 C75.12417036 267.16266112 75.12417036 267.16266112 53.44852352 267.21313572 C50.74401546 267.21605457 48.03950695 267.2186032 45.33499813 267.22070408 C44.6277409 267.22331745 43.92048367 267.22593082 43.1917944 267.22862339 C41.11849256 267.23590379 39.04527366 267.23695515 36.97196102 267.23657322 C35.80169872 267.23879383 34.63143642 267.24101444 33.42571163 267.24330235 C30.79984188 267.12304783 30.79984188 267.12304783 29.79984188 266.12304783 C29.70570501 264.06748121 29.6824119 262.00864602 29.68631649 259.95092869 C29.68619596 259.2966039 29.68607542 258.64227911 29.68595123 257.9681263 C29.6867001 255.8413473 29.69432707 253.71465498 29.70218563 251.58789158 C29.70319271 250.29145725 29.70419979 248.99502293 29.70523739 247.65930271 C29.71048931 242.79304215 29.72445041 237.92679415 29.73734188 233.06054783 C29.75796688 222.19117283 29.77859188 211.32179783 29.79984188 200.12304783 C8.01984188 200.12304783 -13.76015812 200.12304783 -36.20015812 200.12304783 C-36.20015812 156.23304783 -36.20015812 112.34304783 -36.20015812 67.12304783 C-25.31015812 67.12304783 -14.42015812 67.12304783 -3.20015812 67.12304783 C-3.21756046 59.99388767 -3.21756046 59.99388767 -3.23531437 52.72070408 C-3.2404213 49.71744751 -3.24523508 46.71419627 -3.24898624 43.71093845 C-3.25497402 38.93952421 -3.26207258 34.16812908 -3.27559757 29.39672947 C-3.28642873 25.55179668 -3.29243544 21.70688438 -3.29503536 17.86193752 C-3.2968892 16.391858 -3.30050903 14.92177965 -3.30588818 13.45170879 C-3.31310167 11.39950315 -3.31414893 9.34738316 -3.31368351 7.29516697 C-3.31590412 6.12490467 -3.31812473 4.95464237 -3.32041264 3.74891758 C-3.15681226 0.17655044 -3.15681226 0.17655044 0 0 Z " fill="#F32444" transform="translate(83.20015811920166,82.87695217132568)"/>
<path d="M0 0 C1.78204079 0.00333092 1.78204079 0.00333092 3.6000824 0.00672913 C4.26431937 0.00660859 4.92855635 0.00648806 5.61292171 0.00636387 C7.77200559 0.00711276 9.93100411 0.01473984 12.09007263 0.02259827 C14.06421143 0.02410889 14.06421143 0.02410889 16.07823181 0.02565002 C21.01838547 0.03090203 25.95852675 0.04486313 30.89866638 0.05775452 C41.93304138 0.07837952 52.96741638 0.09900452 64.33616638 0.12025452 C64.00616638 22.56025452 63.67616638 45.00025452 63.33616638 68.12025452 C74.22616638 68.12025452 85.11616638 68.12025452 96.33616638 68.12025452 C96.33616638 111.68025452 96.33616638 155.24025452 96.33616638 200.12025452 C118.11616638 200.12025452 139.89616638 200.12025452 162.33616638 200.12025452 C162.33616638 221.90025452 162.33616638 243.68025452 162.33616638 266.12025452 C126.14422491 266.7469548 126.14422491 266.7469548 115.41038513 266.89369202 C114.6536167 266.90403851 113.89684826 266.91438499 113.11714745 266.92504501 C95.90298308 267.15547207 78.68929429 267.23529934 61.47370148 267.24363708 C59.26828574 267.24525847 57.06288024 267.24881888 54.85746765 267.25282288 C50.75529449 267.25969456 46.65318716 267.25727515 42.55101013 267.25306702 C40.70730583 267.25604294 40.70730583 267.25604294 38.82635498 267.25907898 C37.71576218 267.2559671 36.60516937 267.25285522 35.46092224 267.24964905 C34.48972946 267.24885345 33.51853668 267.24805786 32.51791382 267.24723816 C30.33616638 267.12025452 30.33616638 267.12025452 29.33616638 266.12025452 C29.24202951 264.0646879 29.2187364 262.00585271 29.22264099 259.94813538 C29.22252046 259.29381059 29.22239992 258.6394858 29.22227573 257.96533298 C29.2230246 255.83855399 29.23065157 253.71186167 29.23851013 251.58509827 C29.23951721 250.28866394 29.24052429 248.99222961 29.24156189 247.6565094 C29.24681381 242.79024884 29.26077491 237.92400084 29.27366638 233.05775452 C29.29429138 222.18837952 29.31491638 211.31900452 29.33616638 200.12025452 C7.55616638 200.12025452 -14.22383362 200.12025452 -36.66383362 200.12025452 C-36.66383362 156.23025452 -36.66383362 112.34025452 -36.66383362 67.12025452 C-25.77383362 67.12025452 -14.88383362 67.12025452 -3.66383362 67.12025452 C-3.68123596 59.99109436 -3.68123596 59.99109436 -3.69898987 52.71791077 C-3.7040968 49.7146542 -3.70891058 46.71140296 -3.71266174 43.70814514 C-3.71864952 38.9367309 -3.72574807 34.16533576 -3.73927307 29.39393616 C-3.75010423 25.54900337 -3.75611094 21.70409107 -3.75871086 17.85914421 C-3.7605647 16.38906469 -3.76418453 14.91898633 -3.76956367 13.44891548 C-3.77677717 11.39670984 -3.77782443 9.34458984 -3.77735901 7.29237366 C-3.77957962 6.12211136 -3.78180023 4.95184906 -3.78408813 3.74612427 C-3.62119401 0.18917886 -3.56100842 0.16075604 0 0 Z " fill="#F53A57" transform="translate(83.66383361816406,82.87974548339844)"/>
<path d="M0 0 C22.11 0 44.22 0 67 0 C67 22.11 67 44.22 67 67 C77.89 67 88.78 67 100 67 C100 110.89 100 154.78 100 200 C78.22 200 56.44 200 34 200 C34 222.11 34 244.22 34 267 C23.130625 267.020625 12.26125 267.04125 1.0625 267.0625 C-2.37406006 267.071604 -5.81062012 267.08070801 -9.35131836 267.09008789 C-12.05582642 267.09300674 -14.76033493 267.09555537 -17.46484375 267.09765625 C-18.17210098 267.10026962 -18.87935822 267.102883 -19.60804749 267.10557556 C-21.68134933 267.11285596 -23.75456822 267.11390732 -25.82788086 267.11352539 C-26.99814316 267.115746 -28.16840546 267.11796661 -29.37413025 267.12025452 C-32 267 -32 267 -33 266 C-33.09777019 263.43281803 -33.12995016 260.89256084 -33.12025452 258.32493591 C-33.12110894 257.51145457 -33.12196337 256.69797322 -33.12284368 255.85984093 C-33.12450097 253.11283759 -33.11897306 250.36589427 -33.11352539 247.61889648 C-33.11324355 245.65818279 -33.1134012 243.697469 -33.1139679 241.73675537 C-33.11425598 236.39606666 -33.10835752 231.05540019 -33.10139394 225.71471667 C-33.09516218 220.13997684 -33.09455674 214.56523655 -33.09336853 208.99049377 C-33.09025469 198.42593909 -33.08204059 187.86139469 -33.07201904 177.29684454 C-33.06085955 165.2728677 -33.05534787 153.24889039 -33.05032361 141.22490966 C-33.03985801 116.4832672 -33.02205721 91.74163461 -33 67 C-22.11 67 -11.22 67 0 67 C0 44.89 0 22.78 0 0 Z " fill="#F32545" transform="translate(412,83)"/>
<path d="M0 0 C1.75539345 0.00333092 1.75539345 0.00333092 3.54624939 0.00672913 C4.20057418 0.00660859 4.85489897 0.00648806 5.52905178 0.00636387 C7.65583077 0.00711273 9.7825231 0.0147397 11.9092865 0.02259827 C13.85393799 0.02410889 13.85393799 0.02410889 15.83787537 0.02565002 C20.70413593 0.03090195 25.57038393 0.04486304 30.43663025 0.05775452 C41.30600525 0.07837952 52.17538025 0.09900452 63.37413025 0.12025452 C63.37413025 22.23025452 63.37413025 44.34025452 63.37413025 67.12025452 C74.26413025 67.12025452 85.15413025 67.12025452 96.37413025 67.12025452 C96.37413025 111.01025452 96.37413025 154.90025452 96.37413025 200.12025452 C118.15413025 200.12025452 139.93413025 200.12025452 162.37413025 200.12025452 C162.37413025 221.90025452 162.37413025 243.68025452 162.37413025 266.12025452 C140.59413025 266.12025452 118.81413025 266.12025452 96.37413025 266.12025452 C96.41374354 287.79592604 96.41374354 287.79592604 96.46421814 309.47157288 C96.46713699 312.17608094 96.46968562 314.88058944 96.4717865 317.58509827 C96.47439987 318.2923555 96.47701324 318.99961273 96.47970581 319.728302 C96.48698621 321.80160384 96.48803757 323.87482274 96.48765564 325.94813538 C96.48987625 327.11839767 96.49209686 328.28865997 96.49438477 329.49438477 C96.37413025 332.12025452 96.37413025 332.12025452 95.37413025 333.12025452 C93.31856364 333.21439139 91.25972844 333.23768449 89.20201111 333.23377991 C88.54768632 333.23390044 87.89336153 333.23402098 87.21920872 333.23414516 C85.09242972 333.2333963 82.9657374 333.22576933 80.838974 333.21791077 C78.89432251 333.21640015 78.89432251 333.21640015 76.91038513 333.21485901 C72.04412457 333.20960709 67.17787657 333.19564599 62.31163025 333.18275452 C51.44225525 333.16212952 40.57288025 333.14150452 29.37413025 333.12025452 C29.37413025 311.01025452 29.37413025 288.90025452 29.37413025 266.12025452 C51.15413025 266.12025452 72.93413025 266.12025452 95.37413025 266.12025452 C95.37413025 244.34025452 95.37413025 222.56025452 95.37413025 200.12025452 C73.59413025 200.12025452 51.81413025 200.12025452 29.37413025 200.12025452 C29.37413025 156.56025452 29.37413025 113.00025452 29.37413025 68.12025452 C18.48413025 68.12025452 7.59413025 68.12025452 -3.62586975 68.12025452 C-3.66597856 51.43944637 -3.66597856 51.43944637 -3.67469788 44.35267639 C-3.68068571 39.50883393 -3.6877844 34.66501029 -3.7013092 29.82118225 C-3.71214018 25.9178948 -3.71814703 22.01462753 -3.72074699 18.11132622 C-3.72260086 16.61891805 -3.72622075 15.12651103 -3.73159981 13.6341114 C-3.73881306 11.55077312 -3.73986058 9.4675192 -3.73939514 7.38417053 C-3.74161575 6.19614334 -3.74383636 5.00811615 -3.74612427 3.78408813 C-3.58536823 0.22307972 -3.55694541 0.16289412 0 0 Z " fill="#DD213E" transform="translate(150.62586975097656,82.87974548339844)"/>
<path d="M0 0 C21.78 0 43.56 0 66 0 C66.75503535 44.3583271 67.09623519 88.63557521 67 133 C44.56 133 22.12 133 -1 133 C-1.09439483 88.63442968 -0.76978335 44.35876531 0 0 Z " fill="#F32545" transform="translate(247,349)"/>
<path d="M0 0 C21.78 0 43.56 0 66 0 C66 22.11 66 44.22 66 67 C54.78 67 43.56 67 32 67 C32 88.78 32 110.56 32 133 C10.55 133 -10.9 133 -33 133 C-33 111.55 -33 90.1 -33 68 C-22.11 68 -11.22 68 0 68 C0 45.56 0 23.12 0 0 Z " fill="#F53A57" transform="translate(413,83)"/>
<path d="M0 0 C22.11 0 44.22 0 67 0 C67 22.11 67 44.22 67 67 C44.89 67 22.78 67 0 67 C0 44.89 0 22.78 0 0 Z " fill="#C61E38" transform="translate(313,349)"/>
<path d="M0 0 C22.11 0 44.22 0 67 0 C67 22.11 67 44.22 67 67 C44.89 67 22.78 67 0 67 C0 44.89 0 22.78 0 0 Z " fill="#F42545" transform="translate(47,150)"/>
<path d="M0 0 C22.11 0 44.22 0 67 0 C67 22.11 67 44.22 67 67 C56.130625 67.020625 45.26125 67.04125 34.0625 67.0625 C30.62593994 67.071604 27.18937988 67.08070801 23.64868164 67.09008789 C20.94417358 67.09300674 18.23966507 67.09555537 15.53515625 67.09765625 C14.82789902 67.10026962 14.12064178 67.102883 13.39195251 67.10557556 C11.31865067 67.11285596 9.24543178 67.11390732 7.17211914 67.11352539 C6.00185684 67.115746 4.83159454 67.11796661 3.62586975 67.12025452 C1 67 1 67 0 66 C-0.09413687 63.94443339 -0.11742998 61.88559819 -0.11352539 59.82788086 C-0.11364593 59.17355607 -0.11376646 58.51923128 -0.11389065 57.84507847 C-0.11314179 55.71829948 -0.10551481 53.59160715 -0.09765625 51.46484375 C-0.09664917 50.16840942 -0.09564209 48.8719751 -0.09460449 47.53625488 C-0.08935257 42.66999432 -0.07539147 37.80374632 -0.0625 32.9375 C-0.041875 22.068125 -0.02125 11.19875 0 0 Z " fill="#F53A57" transform="translate(379,283)"/>
<path d="M0 0 C21.78 0 43.56 0 66 0 C66 22.11 66 44.22 66 67 C44.22 67 22.44 67 0 67 C0 44.89 0 22.78 0 0 Z " fill="#F43A57" transform="translate(247,216)"/>
<path d="M0 0 C21.78 0 43.56 0 66 0 C66 22.11 66 44.22 66 67 C44.22 67 22.44 67 0 67 C0 44.89 0 22.78 0 0 Z " fill="#C61E38" transform="translate(346,83)"/>
<path d="M0 0 C21.78 0 43.56 0 66 0 C66 21.78 66 43.56 66 66 C44.22 66 22.44 66 0 66 C0 44.22 0 22.44 0 0 Z " fill="#F43A57" transform="translate(247,349)"/>
<path d="M0 0 C21.78 0 43.56 0 66 0 C66 21.78 66 43.56 66 66 C44.22 66 22.44 66 0 66 C0 44.22 0 22.44 0 0 Z " fill="#F42545" transform="translate(313,283)"/>
<path d="M0 0 C21.78 0 43.56 0 66 0 C66 21.78 66 43.56 66 66 C44.22 66 22.44 66 0 66 C0 44.22 0 22.44 0 0 Z " fill="#C61E38" transform="translate(247,283)"/>
<path d="M0 0 C21.78 0 43.56 0 66 0 C66 21.78 66 43.56 66 66 C44.22 66 22.44 66 0 66 C0 44.22 0 22.44 0 0 Z " fill="#F42545" transform="translate(180,283)"/>
<path d="M0 0 C21.78 0 43.56 0 66 0 C66 21.78 66 43.56 66 66 C44.22 66 22.44 66 0 66 C0 44.22 0 22.44 0 0 Z " fill="#F53A57" transform="translate(446,217)"/>
<path d="M0 0 C21.78 0 43.56 0 66 0 C66 21.78 66 43.56 66 66 C44.22 66 22.44 66 0 66 C0 44.22 0 22.44 0 0 Z " fill="#C61E38" transform="translate(313,217)"/>
<path d="M0 0 C21.78 0 43.56 0 66 0 C66 21.78 66 43.56 66 66 C44.22 66 22.44 66 0 66 C0 44.22 0 22.44 0 0 Z " fill="#C61E38" transform="translate(180,217)"/>
<path d="M0 0 C21.78 0 43.56 0 66 0 C66 21.78 66 43.56 66 66 C44.22 66 22.44 66 0 66 C0 44.22 0 22.44 0 0 Z " fill="#F42545" transform="translate(114,217)"/>
<path d="M0 0 C21.45 0 42.9 0 65 0 C65 21.78 65 43.56 65 66 C43.55 66 22.1 66 0 66 C0 44.22 0 22.44 0 0 Z " fill="#C61E38" transform="translate(148,84)"/>
<path d="M0 0 C2.21477492 3.32216238 2.29667707 4.55033323 2.3125 8.4375 C2.33763672 9.85869141 2.33763672 9.85869141 2.36328125 11.30859375 C1.94988891 14.37125309 1.03729471 15.72618559 -1 18 C-3.31 17.67 -5.62 17.34 -8 17 C-10.43929888 11.96894605 -10.75728737 7.48822994 -9.125 2.125 C-6.91557976 -2.04834934 -4.12440694 -1.03110174 0 0 Z " fill="#FFD100" transform="translate(27,59)"/>
<path d="M0 0 C3 0.5625 3 0.5625 4.6640625 2.28515625 C6.21907878 4.93595885 6.40292162 6.5097366 6.375 9.5625 C6.38273437 10.408125 6.39046875 11.25375 6.3984375 12.125 C5.91925971 15.05644061 5.05330272 16.43689788 3 18.5625 C0 19.125 0 19.125 -3 18.5625 C-5.61093174 15.77750615 -6.20651425 13.26918656 -6.375 9.5625 C-6.15029756 4.61904632 -5.31188584 0.9959786 0 0 Z " fill="#FFD100" transform="translate(23,29.4375)"/>
<path d="M0 0 C1.8871875 0.00773437 1.8871875 0.00773437 3.8125 0.015625 C5.070625 0.01046875 6.32875 0.0053125 7.625 0 C10.8125 0.265625 10.8125 0.265625 12.8125 2.265625 C13.36494799 7.45863612 13.36494799 7.45863612 11.66796875 9.9375 C9.02297067 11.83076178 7.03155109 11.6294089 3.8125 11.578125 C2.2346875 11.57232422 2.2346875 11.57232422 0.625 11.56640625 C-2.1875 11.265625 -2.1875 11.265625 -5.1875 9.265625 C-5.5 5.765625 -5.5 5.765625 -5.1875 2.265625 C-3.1875 0.265625 -3.1875 0.265625 0 0 Z " fill="#FFCF00" transform="translate(450.1875,419.734375)"/>
<path d="M0 0 C2.9375 0.875 2.9375 0.875 4.9375 3.875 C5.23828125 6.43359375 5.23828125 6.43359375 5.25 9.3125 C5.27513672 10.73369141 5.27513672 10.73369141 5.30078125 12.18359375 C4.88187234 15.28712321 4.10812454 16.64739009 1.9375 18.875 C-0.86821685 19.36600045 -2.32482731 19.38148819 -4.6953125 17.75390625 C-6.70780277 14.98816962 -6.46033234 12.75418558 -6.4375 9.375 C-6.44910156 7.65796875 -6.44910156 7.65796875 -6.4609375 5.90625 C-6.0625 2.875 -6.0625 2.875 -4.73046875 0.9609375 C-3.0625 -0.125 -3.0625 -0.125 0 0 Z " fill="#FFCF00" transform="translate(469.0625,430.125)"/>
<path d="M0 0 C1.73056641 -0.02513672 1.73056641 -0.02513672 3.49609375 -0.05078125 C6.5625 0.3125 6.5625 0.3125 8.484375 1.640625 C9.5625 3.3125 9.5625 3.3125 9.375 6.375 C8.5625 9.3125 8.5625 9.3125 6.5625 11.3125 C3.8828125 11.6484375 3.8828125 11.6484375 0.6875 11.6875 C-0.88644531 11.73003906 -0.88644531 11.73003906 -2.4921875 11.7734375 C-6.09446022 11.2096866 -7.27056024 10.19474026 -9.4375 7.3125 C-9.12007755 0.64662863 -6.06272268 0.02027666 0 0 Z " fill="#FFCF00" transform="translate(482.4375,419.6875)"/>
<path d="M0 0 C1.73056641 -0.04253906 1.73056641 -0.04253906 3.49609375 -0.0859375 C6.5625 0.375 6.5625 0.375 8.484375 2.234375 C9.5625 4.375 9.5625 4.375 9.375 7 C8.5625 9.375 8.5625 9.375 6.5625 11.375 C3.62890625 11.7109375 3.62890625 11.7109375 0.125 11.75 C-1.02871094 11.77835938 -2.18242188 11.80671875 -3.37109375 11.8359375 C-6.4375 11.375 -6.4375 11.375 -8.359375 9.515625 C-9.4375 7.375 -9.4375 7.375 -9.25 4.75 C-7.52954656 -0.27901775 -4.84651217 0.05403024 0 0 Z " fill="#FFCF00" transform="translate(37.4375,47.625)"/>
<path d="M0 0 C1.258125 -0.01675781 2.51625 -0.03351562 3.8125 -0.05078125 C4.864375 0.06910156 5.91625 0.18898437 7 0.3125 C9.15502531 3.54503796 9.46856135 4.56400923 9 8.3125 C7.85546875 9.94921875 7.85546875 9.94921875 6 11.3125 C3.1875 11.67578125 3.1875 11.67578125 0 11.625 C-1.5778125 11.61919922 -1.5778125 11.61919922 -3.1875 11.61328125 C-6 11.3125 -6 11.3125 -9 9.3125 C-9.3125 5.8125 -9.3125 5.8125 -9 2.3125 C-6.12699457 -0.56050543 -3.9965678 0.01228453 0 0 Z " fill="#FFCF00" transform="translate(9,47.6875)"/>
<path d="M0 0 C3.0625 0.3125 3.0625 0.3125 4.73046875 1.45703125 C6.62588727 4.09727699 6.46116495 6.09406696 6.4375 9.3125 C6.44523437 10.364375 6.45296875 11.41625 6.4609375 12.5 C6.0625 15.3125 6.0625 15.3125 4.73046875 17.1640625 C2.13982974 18.94778116 0.1094872 18.70147709 -2.9375 18.3125 C-5.32604824 14.72967765 -5.20648802 12.99856967 -5.1875 8.75 C-5.19265625 7.59371094 -5.1978125 6.43742187 -5.203125 5.24609375 C-4.83692374 1.20172393 -4.03142434 0.42887493 0 0 Z " fill="#FFCF00" transform="translate(467.9375,401.6875)"/>
</svg>
