<?xml version="1.0" encoding="UTF-8"?>
<svg version="1.1" xmlns="http://www.w3.org/2000/svg" width="512" height="512">
<path d="M0 0 C10.23 0 20.46 0 31 0 C31 9.9 31 19.8 31 30 C40.57 30 50.14 30 60 30 C60 20.1 60 10.2 60 0 C90.36 0 120.72 0 152 0 C152 9.9 152 19.8 152 30 C161.57 30 171.14 30 181 30 C181 20.1 181 10.2 181 0 C191.23 0 201.46 0 212 0 C212 9.9 212 19.8 212 30 C221.9 30 231.8 30 242 30 C242 39.9 242 49.8 242 60 C251.9 60 261.8 60 272 60 C272 69.9 272 79.8 272 90 C291.8 90 311.6 90 332 90 C332 99.9 332 109.8 332 120 C341.9 120 351.8 120 362 120 C362 130.23 362 140.46 362 151 C352.1 151 342.2 151 332 151 C332 160.9 332 170.8 332 181 C322.1 181 312.2 181 302 181 C302 190.57 302 200.14 302 210 C311.9 210 321.8 210 332 210 C332 230.46 332 250.92 332 272 C322.1 272 312.2 272 302 272 C302 281.9 302 291.8 302 302 C292.1 302 282.2 302 272 302 C272 311.57 272 321.14 272 331 C281.9 331 291.8 331 302 331 C302 341.23 302 351.46 302 362 C292.1 362 282.2 362 272 362 C272 371.9 272 381.8 272 392 C241.97 392 211.94 392 181 392 C181 382.1 181 372.2 181 362 C171.43 362 161.86 362 152 362 C152 381.47 152 400.94 152 421 C181.7 421 211.4 421 242 421 C242 430.9 242 440.8 242 451 C251.9 451 261.8 451 272 451 C272 461.23 272 471.46 272 482 C262.1 482 252.2 482 242 482 C242 491.9 242 501.8 242 512 C152.24 512 62.48 512 -30 512 C-30 502.1 -30 492.2 -30 482 C-39.9 482 -49.8 482 -60 482 C-60 471.77 -60 461.54 -60 451 C-50.1 451 -40.2 451 -30 451 C-30 441.1 -30 431.2 -30 421 C-0.3 421 29.4 421 60 421 C60 401.53 60 382.06 60 362 C50.43 362 40.86 362 31 362 C31 371.9 31 381.8 31 392 C0.97 392 -29.06 392 -60 392 C-60 382.1 -60 372.2 -60 362 C-69.9 362 -79.8 362 -90 362 C-90 351.77 -90 341.54 -90 331 C-80.1 331 -70.2 331 -60 331 C-60 321.43 -60 311.86 -60 302 C-69.9 302 -79.8 302 -90 302 C-90 292.1 -90 282.2 -90 272 C-99.9 272 -109.8 272 -120 272 C-120 251.54 -120 231.08 -120 210 C-110.1 210 -100.2 210 -90 210 C-90 200.43 -90 190.86 -90 181 C-99.9 181 -109.8 181 -120 181 C-120 171.1 -120 161.2 -120 151 C-129.9 151 -139.8 151 -150 151 C-150 140.77 -150 130.54 -150 120 C-140.1 120 -130.2 120 -120 120 C-120 110.1 -120 100.2 -120 90 C-100.2 90 -80.4 90 -60 90 C-60 80.1 -60 70.2 -60 60 C-50.1 60 -40.2 60 -30 60 C-30 50.1 -30 40.2 -30 30 C-20.1 30 -10.2 30 0 30 C0 20.1 0 10.2 0 0 Z " fill="#22BC65" transform="translate(150,0)"/>
<path d="M0 0 C30.36 0 60.72 0 92 0 C92 9.9 92 19.8 92 30 C101.57 30 111.14 30 121 30 C121 20.1 121 10.2 121 0 C131.23 0 141.46 0 152 0 C152 9.9 152 19.8 152 30 C161.9 30 171.8 30 182 30 C182 39.9 182 49.8 182 60 C191.9 60 201.8 60 212 60 C212 69.9 212 79.8 212 90 C231.8 90 251.6 90 272 90 C272 99.9 272 109.8 272 120 C281.9 120 291.8 120 302 120 C302 130.23 302 140.46 302 151 C292.1 151 282.2 151 272 151 C272 160.9 272 170.8 272 181 C262.1 181 252.2 181 242 181 C242 190.57 242 200.14 242 210 C251.9 210 261.8 210 272 210 C272 230.46 272 250.92 272 272 C262.1 272 252.2 272 242 272 C242 281.9 242 291.8 242 302 C232.1 302 222.2 302 212 302 C212 311.57 212 321.14 212 331 C221.9 331 231.8 331 242 331 C242 341.23 242 351.46 242 362 C232.1 362 222.2 362 212 362 C212 371.9 212 381.8 212 392 C181.97 392 151.94 392 121 392 C121 382.1 121 372.2 121 362 C111.43 362 101.86 362 92 362 C92 381.47 92 400.94 92 421 C121.7 421 151.4 421 182 421 C182 430.9 182 440.8 182 451 C191.9 451 201.8 451 212 451 C212 461.23 212 471.46 212 482 C202.1 482 192.2 482 182 482 C182 491.9 182 501.8 182 512 C92.24 512 2.48 512 -90 512 C-90 502.1 -90 492.2 -90 482 C-99.9 482 -109.8 482 -120 482 C-120 471.77 -120 461.54 -120 451 C-110.1 451 -100.2 451 -90 451 C-90 441.1 -90 431.2 -90 421 C-60.3 421 -30.6 421 0 421 C0 401.53 0 382.06 0 362 C-9.57 362 -19.14 362 -29 362 C-29 351.77 -29 341.54 -29 331 C-19.1 331 -9.2 331 1 331 C1 321.1 1 311.2 1 301 C10.9 301 20.8 301 31 301 C31 291.1 31 281.2 31 271 C40.9 271 50.8 271 61 271 C61 280.9 61 290.8 61 301 C70.9 301 80.8 301 91 301 C91 310.9 91 320.8 91 331 C110.8 331 130.6 331 151 331 C151 321.1 151 311.2 151 301 C171.13 301 191.26 301 212 301 C212 291.1 212 281.2 212 271 C221.9 271 231.8 271 242 271 C242 251.2 242 231.4 242 211 C232.1 211 222.2 211 212 211 C212 190.87 212 170.74 212 150 C202.1 150 192.2 150 182 150 C182 140.1 182 130.2 182 120 C172.1 120 162.2 120 152 120 C152 110.1 152 100.2 152 90 C131.87 90 111.74 90 91 90 C91 70.2 91 50.4 91 30 C61.3 30 31.6 30 1 30 C1 39.9 1 49.8 1 60 C-8.9 60 -18.8 60 -29 60 C-29 50.1 -29 40.2 -29 30 C-19.43 30 -9.86 30 0 30 C0 20.1 0 10.2 0 0 Z " fill="#7B3F2E" transform="translate(210,0)"/>
<path d="M0 0 C30.36 0 60.72 0 92 0 C92 9.9 92 19.8 92 30 C101.57 30 111.14 30 121 30 C121 20.1 121 10.2 121 0 C131.23 0 141.46 0 152 0 C152 9.9 152 19.8 152 30 C161.9 30 171.8 30 182 30 C182 39.9 182 49.8 182 60 C191.9 60 201.8 60 212 60 C212 69.9 212 79.8 212 90 C231.8 90 251.6 90 272 90 C272 99.9 272 109.8 272 120 C281.9 120 291.8 120 302 120 C302 130.23 302 140.46 302 151 C292.1 151 282.2 151 272 151 C272 160.9 272 170.8 272 181 C262.1 181 252.2 181 242 181 C242 190.57 242 200.14 242 210 C251.9 210 261.8 210 272 210 C272 230.46 272 250.92 272 272 C262.1 272 252.2 272 242 272 C242 281.9 242 291.8 242 302 C232.1 302 222.2 302 212 302 C212 311.57 212 321.14 212 331 C221.9 331 231.8 331 242 331 C242 341.23 242 351.46 242 362 C232.1 362 222.2 362 212 362 C212 371.9 212 381.8 212 392 C181.97 392 151.94 392 121 392 C121 371.87 121 351.74 121 331 C130.9 331 140.8 331 151 331 C151 321.1 151 311.2 151 301 C171.13 301 191.26 301 212 301 C212 291.1 212 281.2 212 271 C221.9 271 231.8 271 242 271 C242 251.2 242 231.4 242 211 C232.1 211 222.2 211 212 211 C212 190.87 212 170.74 212 150 C202.1 150 192.2 150 182 150 C182 140.1 182 130.2 182 120 C172.1 120 162.2 120 152 120 C152 110.1 152 100.2 152 90 C131.87 90 111.74 90 91 90 C91 70.2 91 50.4 91 30 C61.3 30 31.6 30 1 30 C1 39.9 1 49.8 1 60 C-8.9 60 -18.8 60 -29 60 C-29 50.1 -29 40.2 -29 30 C-19.43 30 -9.86 30 0 30 C0 20.1 0 10.2 0 0 Z " fill="#009982" transform="translate(210,0)"/>
<path d="M0 0 C89.76 0 179.52 0 272 0 C272 9.9 272 19.8 272 30 C182.24 30 92.48 30 0 30 C0 20.1 0 10.2 0 0 Z " fill="#000000" transform="translate(120,482)"/>
<path d="M0 0 C10.23 0 20.46 0 31 0 C31 9.9 31 19.8 31 30 C50.8 30 70.6 30 91 30 C91 40.23 91 50.46 91 61 C81.1 61 71.2 61 61 61 C61 70.9 61 80.8 61 91 C30.97 91 0.94 91 -30 91 C-30 70.87 -30 50.74 -30 30 C-20.1 30 -10.2 30 0 30 C0 20.1 0 10.2 0 0 Z " fill="#009881" transform="translate(361,301)"/>
<path d="M0 0 C19.8 0 39.6 0 60 0 C60 9.9 60 19.8 60 30 C69.9 30 79.8 30 90 30 C90 39.9 90 49.8 90 60 C30.6 60 -28.8 60 -90 60 C-90 50.1 -90 40.2 -90 30 C-60.3 30 -30.6 30 0 30 C0 20.1 0 10.2 0 0 Z " fill="#D97F49" transform="translate(211,422)"/>
<path d="M0 0 C9.9 0 19.8 0 30 0 C30 9.57 30 19.14 30 29 C39.9 29 49.8 29 60 29 C60 49.46 60 69.92 60 91 C50.1 91 40.2 91 30 91 C30 100.9 30 110.8 30 121 C20.1 121 10.2 121 0 121 C0 130.57 0 140.14 0 150 C-9.9 150 -19.8 150 -30 150 C-30 140.1 -30 130.2 -30 120 C-20.1 120 -10.2 120 0 120 C0 110.1 0 100.2 0 90 C9.9 90 19.8 90 30 90 C30 70.2 30 50.4 30 30 C20.1 30 10.2 30 0 30 C0 20.1 0 10.2 0 0 Z " fill="#000000" transform="translate(422,181)"/>
<path d="M0 0 C9.9 0 19.8 0 30 0 C30 9.9 30 19.8 30 30 C20.1 30 10.2 30 0 30 C0 49.8 0 69.6 0 90 C9.9 90 19.8 90 30 90 C30 99.9 30 109.8 30 120 C39.9 120 49.8 120 60 120 C60 129.9 60 139.8 60 150 C50.1 150 40.2 150 30 150 C30 140.43 30 130.86 30 121 C20.1 121 10.2 121 0 121 C0 111.1 0 101.2 0 91 C-9.9 91 -19.8 91 -30 91 C-30 70.54 -30 50.08 -30 29 C-20.1 29 -10.2 29 0 29 C0 19.43 0 9.86 0 0 Z " fill="#000000" transform="translate(60,181)"/>
<path d="M0 0 C9.9 0 19.8 0 30 0 C30 9.9 30 19.8 30 30 C39.9 30 49.8 30 60 30 C60 40.23 60 50.46 60 61 C50.43 61 40.86 61 31 61 C31 80.47 31 99.94 31 120 C20.77 120 10.54 120 0 120 C0 80.4 0 40.8 0 0 Z " fill="#000000" transform="translate(271,301)"/>
<path d="M0 0 C9.9 0 19.8 0 30 0 C30 39.6 30 79.2 30 120 C19.77 120 9.54 120 -1 120 C-1 100.53 -1 81.06 -1 61 C-10.57 61 -20.14 61 -30 61 C-30 50.77 -30 40.54 -30 30 C-20.1 30 -10.2 30 0 30 C0 20.1 0 10.2 0 0 Z " fill="#000000" transform="translate(211,301)"/>
<path d="M0 0 C9.9 0 19.8 0 30 0 C30 9.9 30 19.8 30 30 C40.23 30 50.46 30 61 30 C61 39.9 61 49.8 61 60 C51.1 60 41.2 60 31 60 C31 69.9 31 79.8 31 90 C20.77 90 10.54 90 0 90 C0 80.1 0 70.2 0 60 C-9.9 60 -19.8 60 -30 60 C-30 50.1 -30 40.2 -30 30 C-20.1 30 -10.2 30 0 30 C0 20.1 0 10.2 0 0 Z " fill="#F2851F" transform="translate(331,181)"/>
<path d="M0 0 C30.36 0 60.72 0 92 0 C92 9.9 92 19.8 92 30 C101.57 30 111.14 30 121 30 C121 39.9 121 49.8 121 60 C111.1 60 101.2 60 91 60 C91 50.1 91 40.2 91 30 C61.3 30 31.6 30 1 30 C1 39.9 1 49.8 1 60 C-8.9 60 -18.8 60 -29 60 C-29 50.1 -29 40.2 -29 30 C-19.43 30 -9.86 30 0 30 C0 20.1 0 10.2 0 0 Z " fill="#000000" transform="translate(210,0)"/>
<path d="M0 0 C9.9 0 19.8 0 30 0 C30 9.9 30 19.8 30 30 C39.9 30 49.8 30 60 30 C60 40.23 60 50.46 60 61 C50.1 61 40.2 61 30 61 C30 70.9 30 80.8 30 91 C20.1 91 10.2 91 0 91 C0 80.77 0 70.54 0 60 C-9.9 60 -19.8 60 -30 60 C-30 50.43 -30 40.86 -30 31 C-20.1 31 -10.2 31 0 31 C0 20.77 0 10.54 0 0 Z " fill="#F2851F" transform="translate(241,90)"/>
<path d="M0 0 C9.9 0 19.8 0 30 0 C30 9.9 30 19.8 30 30 C39.9 30 49.8 30 60 30 C60 39.9 60 49.8 60 60 C50.1 60 40.2 60 30 60 C30 69.9 30 79.8 30 90 C20.1 90 10.2 90 0 90 C0 80.1 0 70.2 0 60 C-9.9 60 -19.8 60 -30 60 C-30 50.1 -30 40.2 -30 30 C-20.1 30 -10.2 30 0 30 C0 20.1 0 10.2 0 0 Z " fill="#F3851F" transform="translate(151,181)"/>
<path d="M0 0 C30.03 0 60.06 0 91 0 C91 9.9 91 19.8 91 30 C60.97 30 30.94 30 0 30 C0 20.1 0 10.2 0 0 Z " fill="#804231" transform="translate(301,452)"/>
<path d="M0 0 C30.03 0 60.06 0 91 0 C91 9.9 91 19.8 91 30 C60.97 30 30.94 30 0 30 C0 20.1 0 10.2 0 0 Z " fill="#000000" transform="translate(331,362)"/>
<path d="M0 0 C30.03 0 60.06 0 91 0 C91 9.9 91 19.8 91 30 C60.97 30 30.94 30 0 30 C0 20.1 0 10.2 0 0 Z " fill="#000000" transform="translate(90,362)"/>
<path d="M0 0 C29.7 0 59.4 0 90 0 C90 9.9 90 19.8 90 30 C60.3 30 30.6 30 0 30 C0 20.1 0 10.2 0 0 Z " fill="#000000" transform="translate(302,421)"/>
<path d="M0 0 C29.7 0 59.4 0 90 0 C90 9.9 90 19.8 90 30 C60.3 30 30.6 30 0 30 C0 20.1 0 10.2 0 0 Z " fill="#000000" transform="translate(120,421)"/>
<path d="M0 0 C9.9 0 19.8 0 30 0 C30 19.8 30 39.6 30 60 C20.1 60 10.2 60 0 60 C0 40.2 0 20.4 0 0 Z " fill="#009983" transform="translate(422,211)"/>
<path d="M0 0 C19.8 0 39.6 0 60 0 C60 9.9 60 19.8 60 30 C40.2 30 20.4 30 0 30 C0 20.1 0 10.2 0 0 Z " fill="#000000" transform="translate(422,90)"/>
<path d="M0 0 C19.8 0 39.6 0 60 0 C60 9.9 60 19.8 60 30 C40.2 30 20.4 30 0 30 C0 20.1 0 10.2 0 0 Z " fill="#000000" transform="translate(30,90)"/>
<path d="M0 0 C9.9 0 19.8 0 30 0 C30 10.23 30 20.46 30 31 C20.1 31 10.2 31 0 31 C0 20.77 0 10.54 0 0 Z " fill="#000000" transform="translate(392,451)"/>
<path d="M0 0 C9.9 0 19.8 0 30 0 C30 10.23 30 20.46 30 31 C20.1 31 10.2 31 0 31 C0 20.77 0 10.54 0 0 Z " fill="#000000" transform="translate(90,451)"/>
<path d="M0 0 C9.9 0 19.8 0 30 0 C30 10.23 30 20.46 30 31 C20.1 31 10.2 31 0 31 C0 20.77 0 10.54 0 0 Z " fill="#000000" transform="translate(422,331)"/>
<path d="M0 0 C9.9 0 19.8 0 30 0 C30 10.23 30 20.46 30 31 C20.1 31 10.2 31 0 31 C0 20.77 0 10.54 0 0 Z " fill="#000000" transform="translate(60,331)"/>
<path d="M0 0 C9.9 0 19.8 0 30 0 C30 10.23 30 20.46 30 31 C20.1 31 10.2 31 0 31 C0 20.77 0 10.54 0 0 Z " fill="#000000" transform="translate(482,120)"/>
<path d="M0 0 C9.9 0 19.8 0 30 0 C30 10.23 30 20.46 30 31 C20.1 31 10.2 31 0 31 C0 20.77 0 10.54 0 0 Z " fill="#000000" transform="translate(0,120)"/>
<path d="M0 0 C10.23 0 20.46 0 31 0 C31 9.9 31 19.8 31 30 C20.77 30 10.54 30 0 30 C0 20.1 0 10.2 0 0 Z " fill="#000000" transform="translate(331,0)"/>
<path d="M0 0 C10.23 0 20.46 0 31 0 C31 9.9 31 19.8 31 30 C20.77 30 10.54 30 0 30 C0 20.1 0 10.2 0 0 Z " fill="#000000" transform="translate(150,0)"/>
<path d="M0 0 C9.9 0 19.8 0 30 0 C30 9.9 30 19.8 30 30 C20.1 30 10.2 30 0 30 C0 20.1 0 10.2 0 0 Z " fill="#804231" transform="translate(271,422)"/>
<path d="M0 0 C9.9 0 19.8 0 30 0 C30 9.9 30 19.8 30 30 C20.1 30 10.2 30 0 30 C0 20.1 0 10.2 0 0 Z " fill="#000000" transform="translate(241,271)"/>
<path d="M0 0 C9.9 0 19.8 0 30 0 C30 9.9 30 19.8 30 30 C20.1 30 10.2 30 0 30 C0 20.1 0 10.2 0 0 Z " fill="#009983" transform="translate(392,271)"/>
<path d="M0 0 C9.9 0 19.8 0 30 0 C30 9.9 30 19.8 30 30 C20.1 30 10.2 30 0 30 C0 20.1 0 10.2 0 0 Z " fill="#009983" transform="translate(392,181)"/>
<path d="M0 0 C9.9 0 19.8 0 30 0 C30 9.9 30 19.8 30 30 C20.1 30 10.2 30 0 30 C0 20.1 0 10.2 0 0 Z " fill="#CF265F" transform="translate(331,181)"/>
<path d="M0 0 C9.9 0 19.8 0 30 0 C30 9.9 30 19.8 30 30 C20.1 30 10.2 30 0 30 C0 20.1 0 10.2 0 0 Z " fill="#CF265F" transform="translate(151,181)"/>
<path d="M0 0 C9.9 0 19.8 0 30 0 C30 9.9 30 19.8 30 30 C20.1 30 10.2 30 0 30 C0 20.1 0 10.2 0 0 Z " fill="#000000" transform="translate(452,151)"/>
<path d="M0 0 C9.9 0 19.8 0 30 0 C30 9.9 30 19.8 30 30 C20.1 30 10.2 30 0 30 C0 20.1 0 10.2 0 0 Z " fill="#000000" transform="translate(30,151)"/>
<path d="M0 0 C9.9 0 19.8 0 30 0 C30 9.9 30 19.8 30 30 C20.1 30 10.2 30 0 30 C0 20.1 0 10.2 0 0 Z " fill="#CF2560" transform="translate(241,90)"/>
<path d="M0 0 C9.9 0 19.8 0 30 0 C30 9.9 30 19.8 30 30 C20.1 30 10.2 30 0 30 C0 20.1 0 10.2 0 0 Z " fill="#000000" transform="translate(392,60)"/>
<path d="M0 0 C9.9 0 19.8 0 30 0 C30 9.9 30 19.8 30 30 C20.1 30 10.2 30 0 30 C0 20.1 0 10.2 0 0 Z " fill="#000000" transform="translate(90,60)"/>
<path d="M0 0 C9.9 0 19.8 0 30 0 C30 9.9 30 19.8 30 30 C20.1 30 10.2 30 0 30 C0 20.1 0 10.2 0 0 Z " fill="#000000" transform="translate(362,30)"/>
<path d="M0 0 C9.9 0 19.8 0 30 0 C30 9.9 30 19.8 30 30 C20.1 30 10.2 30 0 30 C0 20.1 0 10.2 0 0 Z " fill="#009A83" transform="translate(271,30)"/>
<path d="M0 0 C9.9 0 19.8 0 30 0 C30 9.9 30 19.8 30 30 C20.1 30 10.2 30 0 30 C0 20.1 0 10.2 0 0 Z " fill="#000000" transform="translate(120,30)"/>
</svg>
