<?xml version="1.0" encoding="utf-8"?>
<!-- Generator: Adobe Illustrator 27.5.0, SVG Export Plug-In . SVG Version: 6.00 Build 0)  -->
<svg version="1.1" id="Layer_1" xmlns="http://www.w3.org/2000/svg" xmlns:xlink="http://www.w3.org/1999/xlink" x="0px" y="0px"
	 viewBox="0 0 4000 4000" style="enable-background:new 0 0 4000 4000;" xml:space="preserve">
<g>
	<g>
		<rect style="fill:#BAEEFF;" width="4000" height="4000"/>
	</g>
	<g>
		<g>
			
				<ellipse transform="matrix(0.0764 -0.9971 0.9971 0.0764 1455.8253 2488.6404)" style="fill:#009966;" cx="2071.188" cy="458.52" rx="53.059" ry="105.403"/>
		</g>
		<g>
			<path style="fill:#3B0372;" d="M2083.142,525.788c-5.62,0-11.318-0.22-17.056-0.659c-67.729-5.181-116.611-37.729-113.701-75.708
				c2.915-37.979,56.177-62.705,123.906-57.51c30.171,2.309,58.291,10.517,79.18,23.12c23.76,14.331,36.021,33.008,34.517,52.588
				l0,0c-1.494,19.58-16.46,36.172-42.124,46.719C2129.592,521.848,2107.068,525.788,2083.142,525.788z M2059.348,418.752
				c-44.971,0-78.266,16.055-79.551,32.768c-1.416,18.501,36.084,42.192,88.389,46.196c25.557,1.948,50.825-1.245,69.224-8.814
				c15.112-6.206,24.517-14.951,25.166-23.384l0,0c0.645-8.433-7.319-18.506-21.309-26.943
				c-17.031-10.273-41.479-17.29-67.075-19.253C2069.128,418.938,2064.167,418.752,2059.348,418.752z"/>
		</g>
		<g>
			<ellipse style="fill:#39A1FF;" cx="1435.807" cy="2374.411" rx="522.431" ry="646.164"/>
		</g>
		<g>
			<path style="fill:#3B0372;" d="M1435.808,3039.016c-298.237,0-540.874-298.14-540.874-664.604s242.637-664.609,540.874-664.609
				s540.874,298.145,540.874,664.609S1734.045,3039.016,1435.808,3039.016z M1435.808,1746.687
				c-277.9,0-503.989,281.597-503.989,627.725s226.089,627.72,503.989,627.72s503.989-281.592,503.989-627.72
				S1713.708,1746.687,1435.808,1746.687z"/>
		</g>
		<g>
			<path style="fill:#3B0372;" d="M1330.417,2115.49c-1.172,0-2.363-0.132-3.555-0.4c-92.222-20.884-170.21-34.653-231.802-40.933
				c-6.387-0.649-11.768-5.044-13.682-11.172c-15.84-50.674-24.399-101.792-25.444-151.934c-0.186-8.853,6.846-16.182,15.703-16.367
				c8.931-0.381,16.187,6.846,16.367,15.703c0.913,43.818,7.959,88.511,20.957,132.998c61.094,6.846,136.709,20.43,224.981,40.415
				c8.643,1.958,14.057,10.547,12.104,19.185C1344.358,2110.437,1337.746,2115.49,1330.417,2115.49z"/>
		</g>
		<g>
			<path style="fill:#3B0372;" d="M1015.715,2774.626c-1.089,0-2.197-0.112-3.306-0.347c-8.672-1.816-14.224-10.317-12.407-18.989
				l30.029-143.257c-22.739-185.078-5.952-367.778,51.294-558.447c2.549-8.481,11.489-13.301,19.976-10.747
				c8.481,2.549,13.296,11.489,10.747,19.976c-56.211,187.217-72.52,366.44-49.854,547.91c0.22,1.758,0.146,3.545-0.22,5.278
				l-30.576,145.869C1029.812,2769.431,1023.147,2774.626,1015.715,2774.626z"/>
		</g>
		<g>
			<path style="fill:#3B0372;" d="M1293.757,2674.582c-0.303,0-0.61-0.01-0.918-0.024c-98.755-5.581-183.594-21.333-252.148-46.812
				c-8.306-3.086-12.534-12.319-9.448-20.62c3.086-8.311,12.339-12.529,20.62-9.448c65.552,24.36,147.236,39.448,242.783,44.849
				c8.848,0.503,15.61,8.076,15.112,16.919C1309.275,2667.986,1302.2,2674.582,1293.757,2674.582z"/>
		</g>
		<g>
			<path style="fill:#39A1FF;" d="M2686.891,2374.411c0.745,146.244,1.903,373.622-155.813,572.841
				c-217.439,274.658-564.034,277.493-593.463,277.255c-51.701-0.419-346.958-8.152-556.801-249.759
				c-201.75-232.289-178.161-510.021-171.852-584.298c30.059-353.872,298.138-822.254,728.654-834.056
				c316.995-8.69,592.232,233.701,694.283,478.895C2685.824,2164.854,2686.427,2283.273,2686.891,2374.411z"/>
		</g>
		<g>
			<path style="fill:#3B0372;" d="M1940.066,3242.956c-0.981,0-1.846-0.005-2.603-0.01
				c-82.241-0.659-366.445-21.079-570.576-256.104c-137.261-158.042-196.577-359.224-176.299-597.954
				c16.167-190.342,97.617-397.798,217.886-554.951c100.376-131.167,273.569-288.989,528.638-295.981
				c151.734-4.175,303.628,46.973,439.258,147.881c119.727,89.077,219.072,213.862,272.554,342.368
				c55.327,132.93,55.952,256.143,56.411,346.113l0,0l-18.442,0.093l18.442-0.073c0.767,151.357,1.929,380.083-159.8,584.36
				C2328.723,3232.575,1989.836,3242.956,1940.066,3242.956z M1953.899,1574.612c-5.249,0-10.508,0.073-15.776,0.22
				c-438.55,12.021-683.394,494.731-710.781,817.183c-19.404,228.418,36.919,420.41,167.397,570.64
				c193.999,223.369,464.682,242.778,543.022,243.408c37.202,0.352,368.628-4.707,578.857-270.254
				c153.696-194.141,152.573-415.078,151.831-561.279l18.442-0.117l-18.442,0.093c-0.469-91.738-1.05-205.913-53.579-332.129
				C2519.548,1813.352,2256.906,1574.612,1953.899,1574.612z"/>
		</g>
		<g>
			<path style="fill:#39D4FF;" d="M3182.284,2191.743l-24.885,133.036l-39.732,212.776l-19.889,106.319
				c-5.545,29.65-29.742,52.335-59.758,55.772c-88.539,9.99-177.536-12.374-239.495-67.824
				c-17.964-16.085-25.754-40.695-20.988-64.387l20.622-102.47l43.536-216.442l24.976-124.238
				c6.05-30.063,25.251-55.863,52.29-70.253l24.7-13.152c8.936-4.766,15.627-12.877,18.606-22.593l16.497-54.168l161.541,41.703
				l-8.523,34.6c-2.521,10.311-0.642,21.172,5.178,30.017l30.338,46.331C3181.78,2138.859,3187.141,2165.759,3182.284,2191.743z"/>
		</g>
		<g>
			<path style="fill:#39D4FF;" d="M3182.284,2191.743l-24.885,133.036l-39.732,212.776l-14.207,76.028l-5.682,30.292
				c-5.545,29.65-29.742,52.335-59.758,55.772c-88.539,9.99-177.536-12.374-239.495-67.824
				c-17.964-16.085-25.754-40.695-20.988-64.387l20.622-102.47l43.536-216.442l24.976-124.238
				c6.05-30.063,25.251-55.863,52.29-70.253l24.7-13.152c8.936-4.766,15.627-12.877,18.606-22.593l1.42-4.629l15.077-49.539
				l161.541,41.703l-8.523,34.6c-2.521,10.311-0.642,21.172,5.178,30.017l30.338,46.331
				C3181.78,2138.859,3187.141,2165.759,3182.284,2191.743z"/>
		</g>
		<g>
			<path style="fill:#22B4D6;" d="M3103.461,2613.583l-5.682,30.292c-5.545,29.65-29.742,52.335-59.758,55.772
				c-88.539,9.99-177.536-12.374-239.495-67.824c-17.964-16.085-25.754-40.695-20.988-64.387l20.622-102.47
				c20.164,9.028,42.161,17.964,66.083,26.259c-3.437,22.776-3.437,45.598,5.774,66.358c7.653,17.277,21.127,31.438,36.021,43.078
				c37.165,29.146,85.651,44.773,132.44,38.403C3061.713,2635.901,3084.26,2626.965,3103.461,2613.583z"/>
		</g>
		<g>
			<path style="fill:#F9D702;" d="M3157.399,2324.78l-39.732,212.776c-47.981-1.237-105.311-6.828-168.507-21.63
				c-30.429-7.149-58.797-15.581-84.918-24.701c2.062-13.565,5.315-27.084,8.57-40.191c14.481-58.613,28.137-117.409,40.923-176.343
				c24.655,8.02,50.823,15.581,78.501,22.409C3052.501,2311.902,3108.227,2320.289,3157.399,2324.78z"/>
		</g>
		<g style="opacity:0.6;">
			<g>
				<path style="fill:#FFFFFF;" d="M3140.306,2005.822l-34.241-8.839c-0.99,9.238,0.864,18.604,5.447,26.567l20.491,35.793
					c-1.639-6.124-1.76-12.623-0.22-18.921L3140.306,2005.822z"/>
			</g>
			<g>
				<path style="fill:#FFFFFF;" d="M3167.299,2116.77l-22.795-34.811c10.844,22.687,14.198,48.882,9.237,74.113l-28.259,143.59
					l-45.128,229.656l-16.135,82.059l-6.451,32.694c-5.771,29.335-27.08,51.909-53.769,57.803
					c11.309-0.216,22.668-0.946,34.021-2.227c30.016-3.437,54.213-26.122,59.758-55.772l5.682-30.292l14.207-76.028l39.732-212.776
					l24.885-133.036C3187.141,2165.759,3181.78,2138.859,3167.299,2116.77z"/>
			</g>
		</g>
		<g>
			<path style="fill:#22B4D6;" d="M2913.736,2274.691c-25.755-8.341-49.768-17.185-72.04-26.167l24.976-124.238
				c6.05-30.063,25.251-55.863,52.29-70.253l24.7-13.152c8.936-4.766,15.627-12.877,18.606-22.593l1.42-4.629l1.283-0.825
				C2949.756,2100.455,2932.663,2187.802,2913.736,2274.691z"/>
		</g>
		<g>
			<path style="fill:#FEBD1C;" d="M2913.736,2274.691c-12.786,58.934-26.442,117.73-40.923,176.343
				c-3.255,13.107-6.508,26.626-8.57,40.191c-23.922-8.295-45.919-17.231-66.083-26.259l43.536-216.442
				C2863.969,2257.505,2887.981,2266.35,2913.736,2274.691z"/>
		</g>
		<g>
			<path style="fill:#3B0372;" d="M2996.701,2718.02c-80.664,0-155.107-26.123-208.857-74.243
				c-21.973-19.663-31.948-50.122-26.035-79.487l89.15-443.188c7.017-34.893,29.058-64.502,60.474-81.235l24.688-13.15
				c5.225-2.783,9.058-7.436,10.786-13.105l16.519-54.165c2.505-8.218,11.03-12.998,19.351-10.855l161.524,41.685
				c8.501,2.197,13.662,10.82,11.567,19.351l-8.486,34.609c-1.46,5.957-0.371,12.31,2.988,17.437l30.332,46.294
				c16.846,25.703,23.018,56.509,17.368,86.724l-84.507,452.124c-6.9,36.904-36.529,64.536-73.726,68.75
				C3025.32,2717.209,3010.91,2718.02,2996.701,2718.02z M2989.631,1983.493l-12.041,39.478
				c-4.233,13.872-13.608,25.254-26.396,32.061l-24.683,13.145c-22.91,12.207-38.984,33.799-44.106,59.253l0,0l-89.15,443.188
				c-3.677,18.267,2.451,37.144,15.986,49.258c56.406,50.503,139.136,73.74,226.982,63.813
				c23.106-2.617,41.514-19.805,45.806-42.773l84.507-452.119c4.121-22.036-0.381-44.502-12.666-63.247l-30.337-46.299
				c-8.223-12.544-10.884-28.096-7.305-42.661l4.712-19.209L2989.631,1983.493z M2866.682,2124.265h0.049H2866.682z"/>
		</g>
		<g>
			<path style="fill:#0096F0;" d="M3147.767,2035.089l-194.886-49.371c-2.613-0.662-4.195-3.317-3.533-5.93l27.988-110.481
				c0.662-2.613,3.317-4.195,5.93-3.533l194.887,49.371c2.613,0.662,4.195,3.317,3.533,5.93l-27.988,110.481
				C3153.035,2034.17,3150.38,2035.751,3147.767,2035.089z"/>
		</g>
		<g>
			<path style="fill:#3B0372;" d="M3134.831,2047.087c-3.281,0-6.611-0.4-9.932-1.245l-157.031-39.78
				c-21.616-5.479-34.751-27.52-29.272-49.141l18.398-72.627c2.651-10.474,9.224-19.282,18.506-24.814
				c9.282-5.532,20.166-7.109,30.635-4.458l157.031,39.78c21.616,5.479,34.751,27.52,29.272,49.141l-18.398,72.627
				C3169.406,2034.865,3152.898,2047.087,3134.831,2047.087z M2996.204,1885.862c-3.74,0-7.154,2.524-8.115,6.313l-18.398,72.627
				c-1.133,4.473,1.587,9.033,6.06,10.166l157.031,39.78l0,0c2.163,0.542,4.419,0.22,6.333-0.923
				c1.924-1.147,3.281-2.969,3.833-5.137l18.399-72.627c0.547-2.163,0.219-4.414-0.923-6.333c-1.147-1.924-2.969-3.281-5.137-3.833
				l-157.031-39.78C2997.571,1885.945,2996.882,1885.862,2996.204,1885.862z"/>
		</g>
		<g>
			<path style="fill:#B5EA24;" d="M2519.622,2083.408c79.737,6.238,164.064,41.514,250.334,72.426
				c10.122,3.627,21.03,4.486,31.614,2.596l85.868-15.333c16.406-2.93,32.045,7.979,35.139,24.355
				c9.689,51.281-20.287,81.466-82.165,94.683l-59.575,284.129c-97.059,0.601-187.085-27.299-270.381-82.489L2519.622,2083.408z"/>
		</g>
		<g>
			<path style="fill:#8DB528;" d="M2533.37,2317.127l7.253-231.37c-7.031-0.965-14.04-1.804-21.001-2.349l-9.166,380.366
				c83.296,55.19,173.323,83.09,270.381,82.489l31.364-149.583C2713.455,2388.243,2620.572,2361.54,2533.37,2317.127z"/>
		</g>
		<g>
			<path style="fill:#3B0372;" d="M2777.82,2562.312c-98.003,0-190.913-28.643-276.22-85.171c-4.6-3.047-7.31-8.242-7.178-13.755
				l9.165-380.366c0.107-4.404,2.017-8.569,5.288-11.519c3.271-2.949,7.656-4.429,11.997-4.087
				c69.438,5.435,139.751,31.274,214.189,58.633c13.384,4.917,26.821,9.854,40.308,14.688c7.407,2.646,15.483,3.315,23.384,1.904
				l85.869-15.332c24.888-4.434,49.009,12.222,53.716,37.173c7.422,39.268-1.67,89.619-84.321,110.933l-57.481,274.141
				c-1.548,7.393-8.047,12.7-15.601,12.749C2779.9,2562.307,2778.855,2562.312,2777.82,2562.312z M2526.706,2455.212
				c74.985,47.92,156.006,73.086,241.128,74.912l56.88-271.279c1.304-6.211,6.143-11.069,12.349-12.393
				c71.665-15.313,74.922-48.667,69.751-76.021c-1.455-7.734-8.872-12.93-16.558-11.543l-85.869,15.332
				c-13.389,2.388-27.178,1.245-39.839-3.291c-13.569-4.858-27.09-9.829-40.552-14.775c-66.079-24.282-128.809-47.334-188.76-55.01
				L2526.706,2455.212z"/>
		</g>
		<g>
			<g>
				<path style="fill:#B5EA24;" d="M2560.866,3533.703c-8.523,3.85-18.01,7.287-28.229,10.265c-3.85,1.192-7.837,2.292-11.916,3.3
					c-34.324,8.707-75.89,13.473-120.021,14.573c-4.72,0.138-9.487,0.229-14.299,0.229c-36.524,0.321-74.423-1.787-111.131-6.187
					c-49.676-5.866-97.199-15.81-136.153-29.375c-29.925-10.448-49.997-38.541-50.41-70.253
					c-2.291-174.006-25.846-321.707-100.682-405.892l407.862-206.223c18.882,14.94,36.433,32.125,52.426,51.831
					c74.882,92.25,116.218,240.41,104.624,480.178c-0.275,5.454-0.092,10.907,0.551,16.36c1.054,9.44,3.437,18.698,7.102,27.497
					l22.959,55.038c1.191,2.887,2.108,5.866,2.658,8.845C2590.151,3504.007,2580.205,3524.996,2560.866,3533.703z"/>
			</g>
			<g>
				<path style="fill:#8DB528;" d="M2448.314,2895.971c-21.401,51.235-62.416,95.596-103.111,135.145
					c-55.68,54.122-116.538,109.939-136.428,185.005c-5.82,22.089-7.836,45.002-9.806,67.733
					c-3.804,43.994-7.607,88.034-7.104,132.166c0.275,21.081,1.97,43.582,14.665,60.492c7.974,10.678,19.66,18.01,31.575,24.013
					c13.427,6.782,27.359,12.144,41.656,16.314c-2.749,12.832-4.262,25.938-4.491,39.045c-49.676-5.866-97.199-15.81-136.153-29.375
					c-29.925-10.448-49.997-38.541-50.41-70.253c-2.291-174.006-25.846-321.707-100.682-405.892l407.862-206.223
					C2414.77,2859.08,2432.321,2876.265,2448.314,2895.971z"/>
			</g>
			<g>
				<path style="fill:#8DB528;" d="M2402.946,3530.358c-1.467,10.403-2.2,20.943-2.245,31.483c-4.72,0.138-9.487,0.229-14.299,0.229
					c-0.321-10.632-0.962-21.218-2.474-31.712C2390.252,3530.495,2396.621,3530.449,2402.946,3530.358z"/>
			</g>
			<g>
				<path style="fill:#8DB528;" d="M2532.637,3543.968c-3.85,1.192-7.837,2.292-11.916,3.3c-1.146-9.257-3.116-18.377-5.866-27.313
					c3.85-0.917,7.653-1.97,11.411-3.162C2528.009,3525.912,2530.208,3534.94,2532.637,3543.968z"/>
			</g>
			<g>
				<path style="fill:#D9F1FF;" d="M2386.402,3562.07c-36.524,0.321-74.423-1.787-111.131-6.187
					c0.229-13.106,1.742-26.213,4.491-39.045c33.362,9.761,68.695,13.107,104.166,13.519
					C2385.439,3540.852,2386.081,3551.438,2386.402,3562.07z"/>
			</g>
			<g>
				<path style="fill:#FFFFFF;" d="M2383.928,3530.358c-35.471-0.413-70.804-3.758-104.166-13.519
					c3.255-15.764,8.341-31.162,15.261-45.781c6.278-13.382,16.728-27.725,31.53-27.634c8.798,0.046,16.635,5.362,23.005,11.411
					c16.359,15.627,26.303,37.074,31.437,59.117C2382.232,3519.359,2383.194,3524.858,2383.928,3530.358z"/>
			</g>
			<g>
				<path style="fill:#D9F1FF;" d="M2520.722,3547.268c-34.324,8.707-75.89,13.473-120.021,14.573
					c0.046-10.54,0.779-21.08,2.245-31.483c11.228-0.138,22.409-0.55,33.545-1.054c26.306-1.238,52.885-3.117,78.365-9.349
					C2517.606,3528.891,2519.576,3538.011,2520.722,3547.268z"/>
			</g>
			<g>
				<path style="fill:#FFFFFF;" d="M2514.856,3519.955c-25.48,6.232-52.059,8.112-78.365,9.349
					c-11.135,0.504-22.317,0.916-33.545,1.054c2.979-21.401,9.028-42.344,18.01-62.05c3.345-7.378,7.241-14.757,13.243-20.256
					c5.958-5.499,14.39-8.891,22.318-7.011c5.637,1.329,10.357,5.133,14.619,9.074
					C2491.667,3468.903,2506.698,3493.375,2514.856,3519.955z"/>
			</g>
			<g>
				<path style="fill:#D9F1FF;" d="M2560.866,3533.703c-8.523,3.85-18.01,7.287-28.229,10.265
					c-2.429-9.028-4.629-18.056-6.371-27.176c3.712-1.1,7.379-2.291,11.044-3.666c17.827-6.599,34.921-16.452,48.898-29.238
					C2590.151,3504.007,2580.205,3524.996,2560.866,3533.703z"/>
			</g>
			<g>
				<path style="fill:#FFFFFF;" d="M2586.209,3483.889c-13.978,12.786-31.071,22.639-48.898,29.238
					c-3.665,1.375-7.332,2.566-11.044,3.666c-2.932-15.215-4.629-30.567-4.032-46.056c1.054-28.688,11.182-58.338,31.255-78.227
					c1.054,9.44,3.437,18.698,7.102,27.497l22.959,55.038C2584.742,3477.931,2585.659,3480.91,2586.209,3483.889z"/>
			</g>
			<g>
				<path style="fill:#3B0372;" d="M2378.85,3578.142c-34.897,0-70.386-2.129-105.488-6.333
					c-52.368-6.187-100.625-16.611-139.517-30.156c-36.099-12.598-60.679-46.831-61.177-85.19
					c-2.612-198.564-33.315-324.224-96.631-395.444c-3.306-3.716-4.702-8.76-3.769-13.652c0.928-4.888,4.077-9.072,8.521-11.313
					l407.861-206.226c5.571-2.837,12.285-2.148,17.192,1.738c122.803,97.246,176.157,275.635,163.115,545.361
					c-0.23,4.556-0.073,9.16,0.459,13.711c0.903,8.057,2.91,15.83,5.981,23.198l22.959,55.034
					c12.676,30.454-1.182,66.084-30.894,79.453l0,0c-9.136,4.126-19.341,7.837-30.337,11.045c-3.887,1.201-8.198,2.397-12.568,3.472
					c-34.15,8.667-76.875,13.872-123.457,15.039c-4.81,0.137-9.731,0.229-14.697,0.229
					C2383.889,3578.127,2381.369,3578.142,2378.85,3578.142z M2013.098,3055.656c59.888,79.067,89.106,207.236,91.65,400.391
					c0.322,24.922,16.26,47.148,39.653,55.317c36.719,12.783,82.627,22.671,132.749,28.589c35.806,4.292,73.467,6.353,109.112,6.074
					c4.795,0,9.404-0.083,13.975-0.22c44.287-1.104,84.565-5.977,116.538-14.087c3.872-0.957,7.578-1.982,11.123-3.076
					c9.81-2.861,18.599-6.055,26.372-9.561c0.005-0.005,0.014-0.005,0.019-0.01c14.038-6.309,20.518-23.296,14.453-37.866
					l-22.954-55.024c-4.243-10.181-7.012-20.913-8.242-31.895c-0.728-6.23-0.947-12.632-0.63-18.94
					c12.217-252.588-34.609-420.313-143.11-512.188L2013.098,3055.656z"/>
			</g>
			<g>
				<g>
					<path style="fill:#8DB528;" d="M2473.601,3134.22c-0.122,8.84,8.219,12.513,14.036,17.587
						c7.232,6.309,10.906,16.049,11.992,25.414c2.041,17.591-5.192,36.228-21.258,44.806c-14.558,7.773-33.877,5.658-43.449-8.738
						c-9.932-14.938-4.858-33.02,10.482-41.982c3.983-2.327,8.781-3.841,13.068-1.458c3.271,1.817,5.792,5.424,6.014,9.198
						c0.581,9.9-10.331,10.058-16.94,12.167c-3.479,1.11-4.614,5.302-2.109,7.989c8.245,8.842,22.742,1.1,28.425-7.036
						c6.869-9.836,4.116-23.324-4.734-30.963c-21.45-18.513-50.588,9.318-52.378,31.642c-1.868,23.295,17.063,43.995,39.905,45.764
						c23.992,1.858,45.871-15.326,51.9-38.146c3.555-13.456,2.247-28.018-3.427-40.693c-5.634-12.585-16.993-18.621-26.76-27.524
						C2476.594,3130.628,2473.635,3131.733,2473.601,3134.22L2473.601,3134.22z"/>
				</g>
			</g>
		</g>
		<g>
			<g>
				<path style="fill:#B5EA24;" d="M1870.25,3075.109c-1.558,121.076-35.424,226.708-134.961,300.764
					c-11.824,8.799-21.723,19.843-29.193,32.354c-4.032,6.691-7.378,13.84-9.944,21.264l-12.235,35.195
					c-0.734,2.154-1.65,4.262-2.704,6.232c-9.028,17.781-28.047,28.596-48.348,27.084c-11.228-0.825-22.455-2.062-33.592-3.62
					c-15.169-2.108-30.245-4.904-45.093-8.295c-38.22-8.707-75.066-21.493-109.115-37.853
					c-97.245-46.744-171.623-122.45-190.275-214.563l224.554-490.352l389.532,274.963
					C1870.021,3037.531,1870.524,3056.504,1870.25,3075.109z"/>
			</g>
			<g>
				<path style="fill:#8DB528;" d="M1563.161,3453.689c13.932,4.858,28.092,8.844,42.436,11.777
					c-2.567,9.532-4.675,19.202-6.325,28.917c-15.169-2.108-30.245-4.904-45.093-8.295
					C1557.708,3475.411,1560.732,3464.641,1563.161,3453.689z"/>
			</g>
			<g>
				<path style="fill:#8DB528;" d="M1870.25,3075.109c-53.068,11.869-109.298,9.211-160.992-7.653
					c-49.997-16.314-98.437-46.01-150.771-40.969c-60.171,5.774-106.273,56.047-136.841,108.198
					c-30.933,52.701-52.655,116.86-32.537,174.556c13.519,38.632,44.039,68.924,77.036,93.121c1.328,0.962,2.611,1.925,3.941,2.841
					c-10.449,12.969-18.926,27.542-25.021,43.032c-97.245-46.744-171.623-122.45-190.275-214.563l224.554-490.352l389.532,274.963
					C1870.021,3037.531,1870.524,3056.504,1870.25,3075.109z"/>
			</g>
			<g>
				<path style="fill:#D9F1FF;" d="M1563.161,3453.689c-2.429,10.952-5.453,21.722-8.982,32.4
					c-38.22-8.707-75.066-21.493-109.115-37.853c6.095-15.49,14.573-30.063,25.021-43.032
					C1498.453,3425.459,1530.074,3442.14,1563.161,3453.689z"/>
			</g>
			<g>
				<path style="fill:#FFFFFF;" d="M1564.948,3445.302c-0.549,2.795-1.146,5.591-1.787,8.386
					c-33.087-11.549-64.708-28.23-93.075-48.485c13.932-17.506,31.3-32.217,51.052-42.849c5.681-3.071,11.914-5.82,18.331-4.995
					c7.102,0.962,12.877,6.278,17.002,12.144C1571.548,3390.859,1570.035,3419.639,1564.948,3445.302z"/>
			</g>
			<g>
				<path style="fill:#D9F1FF;" d="M1681.212,3470.919c0.046,0.046,0,0.046-0.046,0.092c-0.413,0.779-0.826,1.558-1.283,2.337
					c-0.138,0.321-0.321,0.688-0.596,1.008c-0.503,0.871-1.054,1.696-1.649,2.521c-0.642,0.917-1.329,1.833-2.016,2.704
					c-0.046,0.092-0.092,0.138-0.183,0.184c-0.642,0.825-1.329,1.604-2.016,2.337c-0.046,0.092-0.092,0.138-0.229,0.229
					c-0.733,0.825-1.513,1.558-2.291,2.291c-0.825,0.779-1.65,1.512-2.567,2.246c-1.742,1.42-3.575,2.75-5.499,3.895
					c-0.962,0.596-1.971,1.192-2.978,1.696c-0.963,0.504-1.926,0.963-2.934,1.421c-0.092,0.046-0.138,0.092-0.229,0.092
					c-0.687,0.321-1.42,0.596-2.154,0.871c-0.595,0.229-1.192,0.458-1.787,0.642c-0.734,0.275-1.513,0.504-2.291,0.687
					c-0.046,0.046-0.138,0.092-0.183,0.046c-1.1,0.367-2.154,0.596-3.254,0.825c-1.146,0.275-2.245,0.458-3.391,0.596
					c-1.191,0.183-2.337,0.321-3.483,0.366c-2.383,0.183-4.858,0.183-7.287,0c-11.228-0.825-22.455-2.062-33.592-3.62
					c1.65-9.716,3.758-19.385,6.325-28.917C1630.619,3470.553,1656.053,3472.615,1681.212,3470.919z"/>
			</g>
			<g>
				<path style="fill:#FFFFFF;" d="M1662.836,3490.763c1.924-1.146,3.757-2.475,5.499-3.895
					C1666.593,3488.334,1664.76,3489.617,1662.836,3490.763z"/>
			</g>
			<g>
				<path style="fill:#FFFFFF;" d="M1706.096,3408.228c-4.032,6.691-7.378,13.84-9.944,21.264l-12.235,35.195
					c-0.734,2.154-1.65,4.262-2.704,6.232c-25.159,1.696-50.594-0.366-75.615-5.453c3.162-11.961,7.012-23.739,11.594-35.241
					c7.974-20.164,20.531-41.611,41.61-46.652c8.754-2.062,17.965-0.962,26.718,1.054c4.353,1.008,8.844,2.337,12.19,5.316
					c3.483,3.025,5.363,7.424,6.738,11.823C1705.088,3403.875,1705.684,3406.028,1706.096,3408.228z"/>
			</g>
			<g>
				<path style="fill:#3B0372;" d="M1636.658,3514.177c-1.66,0-3.33-0.059-5.01-0.186
					c-197.959-14.932-363.062-131.479-392.578-277.134c-0.674-3.325-0.278-6.777,1.133-9.863l224.556-490.352
					c1.987-4.336,5.801-7.563,10.41-8.809c4.609-1.24,9.526-0.366,13.423,2.383l389.531,274.961c3.984,2.813,6.47,7.28,6.763,12.144
					c10.469,174.551-34.028,292.578-140.034,371.445c-15.483,11.514-27.08,27.412-33.535,45.977l-12.256,35.229
					C1689.812,3496.56,1664.597,3514.177,1636.658,3514.177z M1271.589,3235.51c14.473,63.657,57.676,121.221,125.234,166.748
					c66.65,44.912,150.903,73.232,237.236,79.741c15.41,1.187,29.668-8.115,34.697-22.563l12.256-35.229
					c8.579-24.658,24.033-45.815,44.688-61.182c94.99-70.664,135.63-177.603,127.588-336.108l-367.407-259.346L1271.589,3235.51z"/>
			</g>
			<g>
				<g>
					<path style="fill:#8DB528;" d="M1780.1,3207.355c1.815,3.325,4.658,5.862,6.337,9.253c2.038,4.118,2.463,8.987,1.509,13.45
						c-2.269,10.613-10.683,19.719-17.657,27.619c-6.722,7.615-14.352,14.501-24.801,15.873c-8.759,1.149-18.169-1.003-25.569-5.774
						c-15.359-9.902-19.811-31.394-13.385-47.78c2.961-7.552,9.063-15.508,17.552-16.917c8.164-1.354,16.455,3.847,20.778,10.521
						c5.331,8.228,6.471,21.335-2.955,27.143c-3.548,2.186-8.153,2.732-11.482-0.129c-3.317-2.85-4.213-7.405-5.227-11.429
						c-0.905-3.59-5.699-4.814-8.258-2.18c-10.493,10.799,1.84,27.165,13.853,29.789c14.732,3.217,29.067-8.118,32.143-22.265
						c6.194-28.495-25.989-58.712-53.006-41.62c-23.842,15.083-26.766,51.304-11.239,73.249
						c16.172,22.856,49.272,28.123,70.617,9.289c6.364-5.616,11.358-12.879,16.34-19.701c4.774-6.537,9.271-13.668,11.094-21.66
						c1.541-6.757,0.938-13.902-2.095-20.168c-2.613-5.398-7.15-10.562-13.584-8.929
						C1780.028,3205.251,1779.612,3206.462,1780.1,3207.355L1780.1,3207.355z"/>
				</g>
			</g>
		</g>
		<g>
			<g>
				<path style="fill:#39A1FF;" d="M2538.565,2513.682c111.11-162.728,63.546-434.857-82.055-554.107l-156.859,59.675
					l114.568,343.705L2538.565,2513.682z"/>
			</g>
			<g>
				<path style="fill:#3B0372;" d="M2538.567,2529.724c-4.775,0-9.316-2.129-12.373-5.835l-124.346-150.728
					c-1.255-1.519-2.222-3.262-2.842-5.132l-114.57-343.706c-2.719-8.159,1.475-17.007,9.512-20.063l156.86-59.678
					c5.361-2.041,11.421-1.064,15.864,2.583c73.296,60.029,125.41,158.687,142.979,270.674
					c17.852,113.784-3.232,224.912-57.837,304.888c-2.847,4.165-7.48,6.753-12.52,6.982
					C2539.05,2529.719,2538.806,2529.724,2538.567,2529.724z M2428.493,2355.051l108.32,131.299
					c87.183-150.967,48.599-393.096-83.438-508.423l-133.643,50.845L2428.493,2355.051z"/>
			</g>
		</g>
		<g>
			<g>
				<path style="fill:#FEF26B;" d="M2453.768,2828.055c-82.855,148.205-227.073,250.446-438.246,245.222
					c-620.317-19.339-769.898-508.683-439.942-1127.351l820.308,59.575c10.128,13.473,19.752,27.45,28.826,41.932
					C2563.891,2268.871,2580.251,2601.989,2453.768,2828.055z"/>
			</g>
			<g>
				<path style="fill:#EFC754;" d="M2453.768,2828.055c-82.855,148.205-227.073,250.446-438.246,245.222
					c-620.317-19.339-769.898-508.683-439.942-1127.351l820.308,59.575c10.128,13.473,19.752,27.45,28.826,41.932
					c-51.556,27.909-107.74,47.34-165.574,57.147c-86.705,14.802-175.609,8.066-263.323,15.169
					c-87.667,7.057-179.139,30.75-240.547,93.762c-58.889,60.446-80.885,147.014-96.696,229.87
					c-21.859,114.66-35.103,238.989,17.277,343.338c39.045,77.815,111.819,135.649,192.979,167.086
					c81.206,31.438,170.34,38.083,257.092,30.979C2250.57,2974.564,2382.599,2928.508,2453.768,2828.055z"/>
			</g>
			<g>
				<path style="fill:#3B0372;" d="M2030.539,3089.504c-5.117,0-10.249-0.063-15.415-0.19
					c-264.907-8.267-456.553-101.895-554.326-270.767c-61.289-105.85-83.589-236.353-66.284-387.881
					c17.295-151.421,73.452-317.051,166.914-492.29c2.983-5.596,9.058-8.916,15.313-8.447l820.307,59.575
					c4.619,0.332,8.862,2.646,11.65,6.348c79.849,106.011,130.908,248.325,143.765,400.723
					c12.876,152.612-13.711,302.148-74.858,421.055C2387.214,2993.386,2228.84,3089.504,2030.539,3089.504z M1584.851,1962.678
					c-179.033,339.824-213.267,637.759-96.294,839.795c91.929,158.774,274.321,246.875,527.461,254.775
					c246.758,6.006,371.66-134.912,433.057-254.292c118.886-231.167,91.538-572.979-61.68-781.992L1584.851,1962.678z"/>
			</g>
			<g>
				<path style="fill:#3B0372;" d="M2075.098,2133.818c47.721,217.208,65.976,509.062,1.74,723.311
					c-9.559,33.484-22.928,65.835-38.402,96.997c29.062-99.704,42.584-201.614,49.737-304.495
					C2100.219,2477.709,2090.969,2305.413,2075.098,2133.818L2075.098,2133.818z"/>
			</g>
			<g>
				<path style="fill:#3B0372;" d="M1923.867,2317.126c60.24,7.67,119.28,14.15,179.534,11.804
					c60.265-1.764,118.651-12.384,177.92-25.552C2174.826,2366.602,2035.128,2370.603,1923.867,2317.126L1923.867,2317.126z"/>
			</g>
			<g>
				<path style="fill:#3B0372;" d="M1841.379,2560.012c146.815,31.784,297.059,36.23,446.367,25.117
					c10.042-0.666,20.044-1.74,30.234-2.204c-9.517,3.472-19.146,6.755-28.879,9.675
					C2148.194,2631.691,1974.973,2619.762,1841.379,2560.012L1841.379,2560.012z"/>
			</g>
			<g>
				<path style="fill:#3B0372;" d="M1841.379,2816.643c86.566,26.76,176.977,35.922,267.156,33.044
					c29.927-0.725,59.517-2.332,90.295-5.547C2105.199,2894.851,1931.049,2868.866,1841.379,2816.643L1841.379,2816.643z"/>
			</g>
		</g>
		<g>
			<g>
				<path style="fill:#39A1FF;" d="M1551.603,2052.005c39.282,164.576,14.682,336.301-145.584,375.107l252.05,22.914
					c68.741-151.23,95.093-375.819,9.165-490.352l-96.237-13.748l-12.714,28.824
					C1547.565,1999.052,1545.437,2026.17,1551.603,2052.005z"/>
			</g>
			<g>
				<path style="fill:#3B0372;" d="M1658.074,2466.067c-0.483,0-0.967-0.024-1.455-0.068l-252.051-22.915
					c-7.818-0.708-13.97-6.968-14.546-14.795c-0.576-7.827,4.595-14.917,12.222-16.768c51.172-12.388,89.907-39.99,115.122-82.036
					c39.731-66.24,45.454-170.327,15.698-285.576c-5.435-21.04-3.706-43.32,4.854-62.739l18.408-41.719
					c2.896-6.577,9.776-10.41,16.943-9.404l96.235,13.75c4.209,0.601,8.008,2.852,10.562,6.255
					c90.146,120.156,63.472,350.698-7.397,506.611C1670.051,2462.424,1664.314,2466.067,1658.074,2466.067z M1473.83,2417.17
					l174.233,15.84c63.306-146.65,83.579-352.847,10.161-458.418l-77.461-11.069l-13.496,30.596
					c-5.664,12.847-6.782,27.681-3.14,41.772l0,0c32.354,125.327,25.517,235.454-19.253,310.098
					C1526.838,2376.067,1503.059,2399.861,1473.83,2417.17z"/>
			</g>
		</g>
		<g>
			<g>
				<g>
					<path style="fill:#16B768;" d="M1680.161,2257.748c2.307-0.343,4.565-0.895,6.812-1.47c-2.104,0.264-4.208,0.528-6.313,0.792
						c6.102-0.008,10.782-2.146,15.52-5.153c0.947-0.744,1.893-1.489,2.839-2.233c-0.456,0.38-0.912,0.76-1.368,1.14
						c0.088,0.056,1.987-1.47,2.138-1.586c3.181-2.46,5.674-4.757,7.41-8.032c3.639-6.867,5.587-14.151,7.761-21.297
						c0.971-3.19,1.805-6.375,2.729-9.569c0.181-0.627,0.403-1.25,0.58-1.876c0.942-3.324-1.666,3.231-0.476,1.127
						c0.974-1.723,1.765-3.493,2.782-5.211c2.065-3.49-2.246,2.398-0.391,0.395c0.724-0.781,1.38-1.596,2.126-2.368
						c0.665-0.688,4.079-4.531,4.845-4.429c0.081,0.011-4.261,3.058-0.931,0.786c0.949-0.647,1.869-1.321,2.823-1.965
						c2.113-1.425,4.279-2.797,6.501-4.113c3.985-2.361,8.127-4.55,12.303-6.683c2.203-1.125,4.432-2.215,6.656-3.312
						c5.047-2.489-4.271,1.877,0.915-0.419c1.525-0.675,3.032-1.377,4.561-2.047c10.158-4.455,20.666-8.407,31.506-11.575
						c2.7-0.789,5.428-1.484,8.147-2.219c1.149-0.311,4.116-1.299-0.899,0.18c1.326-0.391,2.775-0.612,4.139-0.891
						c5.817-1.192,11.703-2.137,17.618-2.779c2.433-0.264,4.87-0.478,7.31-0.635c1.323-0.085,4.876,0.325,5.871-0.274
						c-1.018,0.022-2.035,0.044-3.053,0.065c0.979-0.01,1.957-0.012,2.935-0.005s1.955,0.024,2.93,0.048
						c2.926,0.074,5.843,0.231,8.742,0.47c4.355,0.359,8.595,0.984,12.866,1.635c4.982,0.76-4.768-1.157,0.045,0.014
						c0.91,0.221,1.836,0.412,2.747,0.632c2.728,0.658,5.415,1.406,8.05,2.243c1.971,0.626,3.912,1.303,5.819,2.03
						c0.384,0.146,3.169,1.042,3.144,1.255c0.012-0.099-3.953-1.891-1.163-0.511c4.39,2.173,8.61,4.458,12.49,7.158
						c0.63,0.439,1.436,1.237,2.125,1.534c-3.624-1.567-1.77-1.425-0.323-0.154c1.473,1.295,2.858,2.652,4.115,4.086
						c0.272,0.321,0.543,0.642,0.814,0.963c0.997,1.288,1.03,1.312,0.098,0.071c-0.709-2.584,0.269,0.671,0.54,1.201
						c-0.003-0.006,1.187,2.126,1.038,2.297c-0.655-2.469-0.74-2.742-0.254-0.817c0.141,0.62,0.252,1.245,0.332,1.875
						c0.151,1.05,0.182,2.102,0.271,3.158c0.298,3.551,0.129-0.794,0.075-0.865c0.812,1.06-0.841,5.096-1.203,6.458
						c-0.288,1.083-0.713,2.153-0.992,3.234c-0.688,2.665,1.84-4.051-0.008,0.088c-1.046,2.342-2.141,4.662-3.366,6.958
						c-0.96,1.8-1.97,3.585-3.028,5.355c-0.948,1.586-2.791,3.516-3.353,5.195c1.028-3.068,1.777-2.157,0.312-0.483
						c-0.694,0.793-1.506,1.525-2.197,2.314c-2.454,2.801,0.804-1.036,1.175-0.74c-0.713,0.531-1.457,1.034-2.231,1.509
						c-1.674,0.915-1.682,0.969-0.024,0.163c0.412-0.189,0.823-0.377,1.235-0.566c-0.895,0.388-1.811,0.74-2.746,1.056
						c-0.863,0.293-2.074,0.485-2.851,0.844c3.962-1.832,3.145-0.703,0.648-0.354c-1.269,0.177-2.538,0.255-3.809,0.399
						c-4.538,0.513,1.465-0.065,1.357,0.029c-0.376,0.325-4.079-0.117-4.641-0.152c-2.553-0.157-5.081-0.44-7.584-0.803
						c-1.529-0.222-3.361-0.36-4.801-0.796c0.57,0.173,4.652,1.036,0.801,0.124c-2.595-0.615-5.188-1.208-7.747-1.9
						c-5.127-1.387-10.142-2.985-15.089-4.689c-9.893-3.409-19.495-7.263-29.312-10.79c-23.224-8.344-49.126-14.827-75.784-11.692
						c-26.154,3.075-49.751,14.958-62.583,33.69c11.497-2.629,22.993-5.259,34.49-7.888c-0.233-0.154-0.466-0.308-0.699-0.463
						c-5.073-3.354-14.418-4.329-20.698-1.62c-0.267,0.115-0.533,0.23-0.8,0.345c-7.187,3.1-12.597,7.549-14.016,14.043
						c-1.224,5.6,1.04,10.809,5.875,14.596c11.249,8.81,28.913,4.647,36.449-6.354c2.305-3.365-3.128,3.422-0.296,0.329
						c0.519-0.567,1.016-1.141,1.556-1.696c0.809-0.832,1.703-1.597,2.546-2.406c2.917-2.795-3.231,2.225-0.89,0.68
						c1.708-1.127,3.347-2.28,5.16-3.307c0.789-0.447,2.162-0.91,2.768-1.478c-3.197,1.478-3.739,1.745-1.625,0.799
						c0.396-0.167,0.792-0.333,1.188-0.5c2.202-0.903,4.465-1.698,6.771-2.398c1.055-0.32,2.124-0.595,3.185-0.898
						c4.479-1.28-4.401,0.837-1.291,0.315c2.202-0.37,4.374-0.798,6.595-1.075c1.104-0.137,2.209-0.257,3.317-0.352
						c0.901-0.078,6.454-0.063,2.299-0.225c-4.375-0.171,0.955,0.033,1.548,0.046c1.338,0.028,2.671,0.084,4.001,0.161
						c2.656,0.154,5.292,0.403,7.908,0.734c1.308,0.166,2.611,0.35,3.907,0.555c1.255,0.198,6.332,0.498,0.654,0.049
						c2.801,0.222,5.749,1.277,8.376,1.963c10.643,2.782,20.776,6.479,30.826,10.256c21.159,7.951,43.995,17.119,68.454,17.658
						c14.826,0.326,30.693-1.963,42.716-10.079c10.453-7.056,16.988-16.492,22.246-26.219c11.518-21.306,14.835-45.021-4.065-62.971
						c-15.561-14.778-37.675-23.535-61.558-27.846c-48.733-8.798-99.262,6.36-141.8,27.442c-11.9,5.898-22.955,12.261-32.54,20.472
						c-9.343,8.004-15.114,17.787-18,28.118c-1.404,5.028-1.54,10.021-1.585,15.088c-0.017,1.906-0.004,3.811-0.023,5.717
						c-0.008,0.785-0.033,1.571-0.039,2.356c-0.031,3.912,0.298-3.029,0.011,0.121c-0.411,4.509-1.551,8.92-0.957,13.406
						c0.092,0.698,0.304,2.414,0.012-0.968c-0.124,3.739-0.173,4.278-0.146,1.617c-0.114,0.518-0.253,1.032-0.418,1.543
						c0.365-1.049,0.302-3.579-0.798,1.458c-0.294,3.587-0.165,3.59,0.387,0.009c-0.23,0.523-0.487,1.04-0.771,1.549
						C1667.701,2252.788,1672.685,2258.858,1680.161,2257.748L1680.161,2257.748z"/>
				</g>
			</g>
			<g>
				<g>
					<path style="fill:#3B0372;" d="M1678.484,2266.155c-5.713,0-10.928-2.515-14.057-6.914c-3.018-4.243-3.555-9.653-1.484-14.351
						c0.025-0.137,0.049-0.273,0.078-0.41c0.073-0.332,0.146-0.674,0.225-1.025c-2.813-4.741-3.774-10.215-2.588-15.679
						c0.767-3.525,2.28-6.724,4.536-9.585c0.093-4.761,0.435-9.512,1.821-14.507c3.506-12.646,10.396-23.457,20.479-32.114
						c8.848-7.607,19.39-14.277,34.175-21.631c53.603-26.665,102.998-36.221,146.787-28.374
						c27.998,5.005,50.112,15.044,65.737,29.839c19.155,18.14,21.187,43.95,5.718,72.671c-4.863,9.033-12.08,20.508-24.795,29.116
						c-11.885,8.047-27.744,11.997-47.398,11.533c-24.375-0.503-47.188-9.067-67.319-16.626l-3.828-1.44
						c-9.526-3.564-19.692-7.271-30.039-9.956c-0.747-0.19-1.509-0.41-2.285-0.635c-1.089-0.313-2.202-0.63-3.193-0.845
						c-0.972-0.073-1.909-0.22-2.769-0.352c-1.235-0.195-2.456-0.366-3.682-0.522c-2.422-0.303-4.878-0.532-7.349-0.669
						c-1.152-0.063-2.314-0.112-3.486-0.142c-0.566,0.068-1.172,0.107-1.816,0.122c-0.591,0.01-1.186,0.02-1.499,0.039
						c-0.884,0.078-1.88,0.19-2.876,0.317c-1.504,0.186-2.959,0.449-4.419,0.708l-1.001,0.176c-0.576,0.161-1.157,0.322-1.733,0.498
						c-1.89,0.576-3.701,1.211-5.4,1.89c-0.62,0.342-1.201,0.61-1.704,0.835c-1.563,0.845-2.681,1.606-3.804,2.358l-0.269,0.225
						c-0.434,0.396-0.869,0.791-1.269,1.206l-0.767,0.84c-1.221,1.704-2.637,3.296-4.209,4.751c-2.358,3.506-5.293,6.05-8.169,8.281
						c-0.684,0.542-1.528,1.216-2.505,1.812l-1.074,0.85c-0.21,0.161-0.42,0.313-0.64,0.449c-3.003,1.914-6.465,3.857-10.63,5.103
						c-0.288,0.107-0.586,0.205-0.894,0.288c-2.231,0.576-4.844,1.226-7.637,1.646l0,0
						C1680.456,2266.081,1679.46,2266.155,1678.484,2266.155z M1766.145,2219.812c0.889,0.229,1.743,0.474,2.563,0.708l1.89,0.527
						c11.099,2.881,21.714,6.748,31.641,10.464l3.848,1.44c19.839,7.451,40.356,15.156,61.963,15.601
						c15.947,0.337,29.063-2.705,37.998-8.755c9.741-6.597,15.386-15.527,19.624-23.389c12.022-22.324,11.148-40.239-2.602-53.257
						c-13.105-12.412-32.974-21.289-57.466-25.669c-40.288-7.222-86.304,1.846-136.729,26.938
						c-13.54,6.733-23.052,12.72-30.845,19.414c-5.093,4.375-9.101,9.473-11.987,15.215c12.803-8.237,28.496-13.735,45.811-15.801
						c1.655-0.195,3.306-0.356,4.951-0.483c2.681-1.47,5.215-2.788,7.344-3.877c1.909-0.981,3.838-1.934,5.767-2.886
						c0.493-0.308,1.04-0.605,1.641-0.889c0.601-0.283,1.172-0.508,1.719-0.684l3.423-1.543
						c11.025-4.858,21.953-8.887,32.471-11.978c1.997-0.591,4.023-1.133,6.05-1.67l0.454-0.127c0.23-0.088,0.464-0.171,0.708-0.244
						c0.025-0.005,0.049-0.015,0.073-0.024c1.626-0.479,3.208-0.947,4.761-1.05c6.186-1.274,12.353-2.261,18.34-2.92
						c2.563-0.278,5.112-0.508,7.666-0.679c0.386-0.024,0.903-0.044,1.509-0.02c0.542-0.127,1.108-0.2,1.684-0.21l3.013-0.068
						c0.469,0,0.869,0.02,1.289,0.073c0.635,0.005,1.279,0.02,1.919,0.034c3.067,0.073,6.143,0.234,9.194,0.479
						c3.711,0.298,7.329,0.781,10.976,1.318c0.918-0.098,1.865,0.078,2.944,0.288c0.986,0.195,1.846,0.454,2.603,0.762l0.337,0.078
						c2.949,0.703,5.825,1.504,8.633,2.388c1.963,0.625,3.887,1.284,5.781,1.992c0.21,0.039,0.42,0.083,0.63,0.137
						c1.865,0.479,3.462,1.235,4.741,2.197c3.442,1.758,7.485,3.975,11.338,6.65c0.371,0.259,0.771,0.571,1.177,0.903
						c0.127,0.088,0.249,0.171,0.366,0.259c0.903,0.518,1.675,1.191,2.3,1.973c0.664,0.62,1.308,1.25,1.929,1.885
						c1.538,0.801,3.017,2.271,3.984,4.883c0.215,0.381,0.396,0.752,0.547,1.113c0.278,0.542,0.542,1.143,0.781,1.807l0.054-0.01
						l0.107,0.439c0.454,1.24,0.649,2.363,0.659,3.374c0,0,0,0,0,0.005c0.044,0.308,0.083,0.63,0.117,0.962
						c1.24,3.599-0.029,7.451-0.923,10.181l-0.244,0.762c-0.049,0.171-0.098,0.347-0.151,0.522c-0.034,0.82-0.181,1.636-0.454,2.417
						c-0.444,1.274-0.967,2.324-1.538,3.184c-0.898,1.963-1.846,3.916-2.876,5.859c-1.021,1.919-2.095,3.828-3.223,5.718
						c-0.464,0.781-1.094,1.66-1.758,2.549l0,0c-0.332,0.806-0.811,1.655-1.465,2.52c-0.298,0.591-0.659,1.128-1.079,1.606
						c-0.356,0.527-0.781,1.016-1.26,1.455c-0.713,0.938-1.641,1.738-2.749,2.31c-0.918,0.664-1.948,1.113-3.017,1.353
						c-0.771,0.283-1.494,0.464-2.173,0.566c-0.142,0.039-0.288,0.073-0.43,0.112l-0.552,0.146c-1.157,0.483-2.358,0.693-3.54,0.615
						c-0.952,0.186-1.948,0.239-2.988,0.195c-1.313,0.078-2.417-0.024-3.374-0.244c-2.822-0.186-5.474-0.464-8.394-0.879
						l-1.074-0.142c-0.102-0.01-0.2-0.024-0.303-0.034c-1.821-0.02-3.491-0.532-4.663-0.894c-0.137-0.044-0.273-0.088-0.405-0.137
						c-2.1-0.493-4.194-0.986-6.265-1.548c-4.883-1.313-9.99-2.891-15.62-4.829c-5.801-1.987-11.504-4.126-17.207-6.265
						c-4.063-1.523-8.125-3.047-12.222-4.517c-16.118-5.757-39.649-12.944-64.395-11.792c-0.61,0.347-1.216,0.703-1.816,1.06
						c-2.08,1.24-4.111,2.529-6.099,3.872l-2.773,1.938c-0.195,0.132-0.386,0.259-0.576,0.376c-0.4,0.41-0.894,0.933-1.475,1.558
						l-0.635,0.679c-0.269,0.283-0.562,0.625-0.855,0.962c-0.361,0.649-0.693,1.304-1.025,1.953c-0.21,0.415-0.42,0.83-0.64,1.24
						l-1.138,4.023c-0.405,1.46-0.811,2.92-1.235,4.38c0.816-0.273,1.641-0.537,2.476-0.791c0.249-0.078,0.503-0.151,0.757-0.225
						c0.957-0.42,2.075-0.781,3.379-1.079c1.221-0.283,2.309-0.381,3.281-0.303c0.806-0.132,1.611-0.254,2.422-0.352
						c0.84-0.107,1.689-0.21,2.544-0.293c0.806-0.229,1.719-0.371,2.759-0.396v-0.02l0.469,0.02c0.117,0,0.234,0.005,0.356,0.005
						l2.182,0.073c1.465,0.034,2.886,0.088,4.307,0.166c2.856,0.166,5.674,0.425,8.467,0.776c1.294,0.161,2.573,0.337,3.848,0.537
						c0.112,0.005,0.229,0.01,0.342,0.02C1762.639,2219.001,1764.495,2219.148,1766.145,2219.812z M1680.246,2238.283
						c3.14,2.1,7.163,2.886,11.509,2.212c3.218-0.498,6.235-1.753,8.682-3.545c1.865-3.657,3.232-7.524,4.497-11.567l-23.657,5.449
						c-0.068,0.522-0.166,1.011-0.288,1.465c-0.088,0.674-0.176,1.318-0.264,1.958
						C1680.525,2235.7,1680.339,2237.038,1680.246,2238.283z M1863.65,2212.541c0.298,0.034,0.601,0.063,0.899,0.098l1.387,0.181
						c2.275,0.327,4.585,0.586,6.914,0.728l0.894,0.073c0.249,0.024,0.571,0.059,0.913,0.088c0.024,0,0.049-0.005,0.073-0.005
						l1.694-0.176c0.386-0.034,0.767-0.068,1.147-0.112c0.547-0.205,1.128-0.396,1.729-0.542c0.024-0.024,0.044-0.044,0.068-0.068
						c0.532-1.069,1.147-1.982,1.846-2.734c0.161-0.225,0.317-0.435,0.469-0.64c0.308-0.415,0.625-0.806,0.845-1.182
						c1.001-1.675,1.938-3.34,2.832-5.024c1.021-1.919,1.943-3.857,2.822-5.815c0.156-0.542,0.327-1.084,0.508-1.626
						c0.122-0.376,0.249-0.752,0.347-1.128c0.107-0.4,0.288-0.977,0.508-1.641c0.112-0.342,0.249-0.728,0.376-1.123
						c-0.005-0.02-0.005-0.044-0.005-0.063l-0.083-1.133c-0.034-0.522-0.063-1.04-0.137-1.563c-0.015-0.112-0.034-0.225-0.049-0.327
						c-0.034-0.059-0.063-0.112-0.083-0.146c-0.068-0.117-0.132-0.239-0.195-0.361c-0.044-0.093-0.107-0.225-0.176-0.386
						c-0.879-1.006-1.753-1.899-2.685-2.759c-1.148-0.586-2.451-1.401-3.486-2.598c-3.477-2.256-7.017-4.077-9.849-5.479
						c-0.21-0.073-0.41-0.142-0.571-0.195l-0.757-0.269c-1.763-0.664-3.564-1.289-5.396-1.87c-2.446-0.771-4.951-1.465-7.495-2.075
						l-2.466-0.562c-4.214-0.635-8.042-1.182-11.958-1.499c-2.749-0.225-5.513-0.366-8.286-0.43
						c-0.591-0.015-1.177-0.024-1.763-0.034c-1.777,0.337-3.584,0.278-5.244,0.225c-0.4-0.015-0.728-0.054-1.05-0.024
						c-2.232,0.146-4.556,0.356-6.87,0.61c-5.479,0.605-11.152,1.509-16.851,2.686l-1.304,0.259
						c-0.215,0.039-0.435,0.078-0.649,0.122c-0.278,0.078-0.547,0.151-0.796,0.22l-2.329,0.625c-1.89,0.503-3.779,1.006-5.65,1.558
						c-7.397,2.178-15.019,4.849-22.749,7.983c15.586,2.52,29.521,6.968,40.342,10.835c4.185,1.499,8.32,3.052,12.456,4.604
						c5.562,2.085,11.118,4.17,16.777,6.108c5.288,1.816,10.054,3.291,14.575,4.512c2.056,0.552,4.141,1.04,6.226,1.528l1.274,0.298
						C1862.952,2212.365,1863.293,2212.444,1863.65,2212.541z M1704.07,2207.634c1.597,0.63,3.091,1.392,4.438,2.28
						c0.274,0.181,0.537,0.381,0.791,0.591l0.181-0.649c0.063-1.299,0.395-2.788,1.103-4.492c0.083-0.195,0.166-0.386,0.249-0.566
						C1708.513,2205.661,1706.252,2206.609,1704.07,2207.634z"/>
				</g>
			</g>
		</g>
		<g>
			<g>
				<g>
					<path style="fill:#9DA9B9;" d="M1140.528,3507.218c-4.323,0.071-8.732-0.806-12.922-2.739
						c-14.945-6.877-21.478-24.572-14.596-39.512l380.68-826.628c6.877-14.941,24.571-21.487,39.512-14.596
						c14.945,6.877,21.478,24.572,14.596,39.512l-380.68,826.628C1162.169,3500.635,1151.621,3507.037,1140.528,3507.218z"/>
				</g>
			</g>
			<g>
				<g>
					<path style="fill:#3B0372;" d="M1140.041,3520.969c-6.313,0-12.432-1.343-18.198-4.009
						c-10.552-4.858-18.584-13.54-22.617-24.448c-4.028-10.908-3.569-22.734,1.294-33.296l380.684-826.631
						c4.863-10.562,13.545-18.599,24.453-22.627c10.918-4.033,22.739-3.564,33.301,1.299c10.557,4.858,18.594,13.545,22.622,24.453
						c4.033,10.908,3.574,22.729-1.289,33.296l-380.688,826.631c-6.953,15.112-22.202,25.059-38.848,25.327h-0.01
						C1140.51,3520.969,1140.276,3520.969,1140.041,3520.969z M1520.745,2634.748c-1.87,0-3.75,0.332-5.557,1.001
						c-4.018,1.484-7.217,4.448-9.009,8.34l-380.684,826.631c-1.787,3.892-1.958,8.247-0.474,12.266
						c1.484,4.014,4.443,7.217,8.335,9.004c2.212,1.021,4.463,1.523,6.958,1.484c6.133-0.103,11.748-3.765,14.312-9.336
						l380.688-826.636c1.787-3.892,1.958-8.247,0.474-12.261c-1.484-4.019-4.443-7.217-8.335-9.009
						C1525.31,2635.241,1523.03,2634.748,1520.745,2634.748z"/>
				</g>
			</g>
			<g>
				<path style="fill:#F9734D;" d="M1743.95,2260.851c-22.364,80.885-55.314,165.62-95.824,253.15
					c-24.702,53.389-52.244,107.786-81.894,163.008c-9.577,17.873-30.063,27.267-49.723,22.318
					c-7.928-2.016-15.489-4.949-22.684-8.707c-17.643-9.257-26.397-29.742-21.814-49.173
					c16.04-68.191,36.662-134.136,59.759-195.224c34.416-91.104,74.378-171.485,113.056-232.619
					c8.616-13.565,25.023-20.301,40.42-15.902c16.498,4.72,31.897,13.152,46.378,24.792
					C1743.033,2231.659,1747.845,2246.782,1743.95,2260.851z"/>
			</g>
			<g>
				<path style="fill:#D8583A;" d="M1648.125,2514c-24.702,53.389-52.244,107.786-81.894,163.008
					c-9.577,17.873-30.063,27.267-49.723,22.318c-7.928-2.016-15.489-4.949-22.684-8.707c-17.643-9.257-26.397-29.742-21.814-49.173
					c16.04-68.191,36.662-134.136,59.759-195.224L1648.125,2514z"/>
			</g>
			<g>
				<path style="fill:#3B0372;" d="M1527.185,2716.677c-4.844,0-9.741-0.591-14.6-1.816c-9.004-2.275-17.817-5.654-26.191-10.039
					c-23.994-12.573-36.323-40.146-29.995-67.056c36.704-155.996,102.085-317.778,174.888-432.734l0,0
					c12.456-19.673,36.465-29.019,58.384-22.744c18.11,5.19,35.605,14.517,52.012,27.72c16.392,13.198,23.354,34.839,17.739,55.132
					c-33.174,119.785-91.738,256.997-179.043,419.473C1569.582,2704.699,1548.957,2716.677,1527.185,2716.677z M1675.72,2212.414
					c-6.763,0-13.433,3.618-17.334,9.775v0.005c-70.996,112.104-134.829,270.205-170.757,422.915
					c-2.978,12.656,2.637,25.522,13.652,31.294c6.147,3.223,12.593,5.698,19.16,7.354c12.402,3.145,25.454-2.754,31.675-14.331
					c86.167-160.347,143.862-295.391,176.387-412.847c2.202-7.944-0.522-16.421-6.938-21.582
					c-13.052-10.508-26.758-17.866-40.728-21.87C1679.158,2212.644,1677.434,2212.414,1675.72,2212.414z M1644.836,2213.611h0.049
					H1644.836z"/>
			</g>
			<g>
				<g>
					<path style="fill:#B5EA24;" d="M1566.415,1955.091c-105.645,20.67-215.559,59.339-293.907,125.862
						c-127.954,108.642-127.265,307.012-0.539,417.084c92.087,79.984,214.507,135.955,308.011,129.217
						c16.253-1.171,32.022-5.96,45.786-14.684c73.125-46.351,133.263-172.103,91.879-277.112
						c-45.827,9.166-109.985-13.748-109.985-68.741l18.331-27.496c-43.367-20.865-82.294-15.978-114.568,27.496
						c-19.975-6.27-38.621-19.694-56.096-39.417C1488.194,2131.17,1525.017,2040.167,1566.415,1955.091z"/>
				</g>
				<g>
					<path style="fill:#8DB528;" d="M1662.428,2552.994c-13.764,8.724-29.533,13.513-45.787,14.684
						c-93.503,6.738-215.923-49.233-308.009-129.217c-94.956-82.476-119.141-214.523-71.475-321.255
						c-91.047,112.337-78.869,282.09,34.813,380.831c92.086,79.984,214.506,135.955,308.009,129.217
						c16.254-1.171,32.023-5.96,45.787-14.684c32.749-20.759,62.86-57.467,82.447-101.082
						C1694.233,2528.499,1678.655,2542.709,1662.428,2552.994z"/>
				</g>
				<g>
					<path style="fill:#3B0372;" d="M1564.665,2643.83c-91.294,0.005-208.193-51.152-303.213-133.687
						c-64.512-56.03-101.235-137.275-100.757-222.905c0.474-84.536,37.446-164.185,101.431-218.511
						c89.111-75.659,212.983-112.119,301.206-129.38c6.016-1.157,12.09,1.147,15.796,5.962c3.706,4.824,4.37,11.328,1.709,16.797
						c-38.677,79.482-74.722,167.344-107.212,261.304c10.674,10.835,21.611,18.901,32.676,24.111
						c33.769-38.579,77.324-46.489,126.641-22.754c4.185,2.012,7.29,5.742,8.516,10.22c1.225,4.478,0.454,9.268-2.124,13.13
						l-15.434,23.159c1.123,12.695,7.021,23.491,17.573,32.144c17.852,14.629,47.891,21.338,73.027,16.309
						c7.593-1.514,15.22,2.617,18.066,9.849c43.54,110.464-16.812,244.941-98.208,296.538
						c-15.483,9.814-33.887,15.742-53.223,17.134C1575.749,2643.64,1570.251,2643.83,1564.665,2643.83z M1537.942,1977.546
						c-80.649,18.594-181.216,52.944-255.054,115.635c-56.846,48.267-89.692,119.063-90.112,194.238
						c-0.425,76.265,32.27,148.618,89.712,198.506c93.272,81.021,212.451,131.367,296.343,125.332
						c14.067-1.016,27.329-5.244,38.35-12.231c67.72-42.93,117.925-154.668,89.678-245.903c-31.094,2.485-63.53-6.699-85.723-24.893
						c-19.312-15.83-29.517-37.104-29.517-61.514c0-3.169,0.938-6.265,2.695-8.896l7.354-11.035
						c-31.118-9.463-55.483,0.015-77.363,29.492c-4.067,5.483-11.167,7.783-17.685,5.742c-22.28-6.992-43.579-21.821-63.301-44.077
						c-3.828-4.321-5.039-10.366-3.169-15.83C1469.939,2134.992,1502.776,2052.878,1537.942,1977.546z"/>
				</g>
				<g>
					<path style="fill:#3B0372;" d="M1463.193,2257.329c-30.064-26.31-53.457-64.926-52.59-105.181
						c8.815,16.93,19.045,31.74,32.333,44.466c12.5,12.562,27.449,20.083,37.62,35.518l4.346,6.624
						C1493.977,2252.941,1475.641,2268.415,1463.193,2257.329L1463.193,2257.329z"/>
				</g>
			</g>
		</g>
		<g>
			<path style="fill:#B5EA24;" d="M2274.446,2049.037c540.762-41.244,549.927-394.11,444.524-600.337
				c82.489-485.769-142.064-861.552-724.071-893.632c-713.713,9.701-803.18,544.582-756.15,879.883
				c-132.899,274.964,32.079,586.589,824.891,614.085C2091.137,2049.037,2274.446,2049.037,2274.446,2049.037z"/>
		</g>
		<g>
			<path style="fill:#B5EA24;" d="M2274.446,2049.037c540.762-41.244,549.927-394.11,444.524-600.337
				c82.489-485.769-142.064-861.552-724.071-893.632c-713.713,9.701-803.18,544.582-756.15,879.883
				c-132.899,274.964,32.079,586.589,824.891,614.085C2091.137,2049.037,2274.446,2049.037,2274.446,2049.037z"/>
		</g>
		<g style="opacity:0.6;">
			<path style="fill:#FFFFFF;" d="M2718.97,1448.7c82.489-485.769-142.064-861.552-724.071-893.632
				c-713.713,9.701-803.18,544.582-756.15,879.883c-38.106,78.841-51.657,160.688-33.005,237.995
				c-10.848-69.491,3.245-142.013,36.853-212.129c-46.068-331.187,41.57-859.505,740.689-869.087
				c570.105,31.686,790.067,402.858,709.264,882.667c68.522,135.186,87.544,334.137-62.201,464.602
				C2810.229,1808.006,2792.542,1592.646,2718.97,1448.7z"/>
		</g>
		<g>
			<g>
				<path style="fill:#8DB528;" d="M2418.895,1967.99c-58.352,11.665-117.808,16.89-177.314,16.89h-159.609
					c-695.012-24.104-907.509-266.563-859.832-511.258c-99.536,264.737,85.656,549.202,841.501,575.416
					c27.496,0,210.805,0,210.805,0c331.518-25.285,463.204-167.694,491.221-321.63
					C2722.998,1834.517,2619.425,1927.9,2418.895,1967.99z"/>
			</g>
		</g>
		<g>
			<path style="fill:#3B0372;" d="M2324.138,1038.015c1.182,8.164,29.84-2.618,74.337,14.497
				c40.627,15.628,80.435,40.395,84.946,21.807c3.363-13.854-16.284-62.495-80.395-62.425
				C2356.667,1011.938,2322.997,1030.152,2324.138,1038.015"/>
		</g>
		<g>
			<path style="fill:#3B0372;" d="M1741.351,996.771c-1.182,8.164-29.84-2.618-74.337,14.497
				c-40.627,15.628-80.435,40.395-84.946,21.807c-3.363-13.854,16.284-62.495,80.395-62.425
				C1708.823,970.694,1742.492,988.907,1741.351,996.771"/>
		</g>
		<g>
			<path style="fill:#3B0372;" d="M2063.64,2049.038c-260.441,13.472-722.13-48.128-849.197-308.234
				c-49.746-98.701-35.667-215.27,13.266-311.187c-0.004-0.005-1.099,7.058-1.105,7.033
				c-23.636-168.242-12.351-345.06,56.516-502.136c104.851-239.106,326.851-358.037,577.87-386.672
				c40.668-4.81,86.631-7.464,127.787-8.561c7.139-0.63,14.277,0.478,21.414,0.866c12.644,0.828,30.365,2.271,42.781,3.364
				c270.195,25.703,524.824,142.304,636.623,404.02c68.013,157.626,70.477,336.811,41.468,503.221l-1.172-7.632
				c18.489,34.81,32.832,71.843,42.554,110.173c54.932,221.065-55.178,394.708-268.296,463.371
				c-73.714,24.362-152.275,33.763-229.702,32.374c37.623-7.512,75.536-13.857,112.71-23.135
				c72.78-17.406,146.604-40.814,209.915-81.174c116.755-72.423,172.909-193.87,157.24-329.803
				c-5.376-55.955-22.351-110.268-46.442-161.03c30.69-219.096,17.815-457.364-130.566-633.913
				c-141.708-172.68-372.792-239.942-588.933-248.655c-284.065,4.114-554.737,100.578-678.544,375.138
				c-67.28,151.651-80.132,323.365-58.932,486.781c0.372,2.507-0.086,4.904-1.103,7.041c-42.116,89.854-54.477,196.98-7.972,287.056
				c4.945,10.936,12.099,21.812,18.255,32.031c3.9,5.586,12.342,17.252,16.296,22.483c5.811,7.018,12.174,14.37,18.064,21.218
				c7.987,7.736,18.256,19.135,26.736,26.032c23.026,20.728,49.362,39.347,75.694,55.549
				c109.695,65.287,235.299,99.359,360.251,121.93C1858.306,2025.326,1961.586,2036.036,2063.64,2049.038L2063.64,2049.038z"/>
		</g>
		<g>
			<g>
				<g>
					
						<ellipse transform="matrix(0.9959 -0.0902 0.0902 0.9959 -116.764 154.8767)" style="fill:#3B0372;" cx="1654.999" cy="1369.183" rx="138.066" ry="159.256"/>
				</g>
			</g>
			<g>
				<g>
					
						<ellipse transform="matrix(0.9959 -0.0909 0.0909 0.9959 -114.9893 159.44)" style="fill:#FFFFFF;" cx="1693.191" cy="1342.327" rx="45.015" ry="56.921"/>
				</g>
			</g>
			<g style="opacity:0.2;">
				<g>
					
						<ellipse transform="matrix(0.9958 -0.0914 0.0914 0.9958 -123.8252 153.6162)" style="fill:#FFFFFF;" cx="1616" cy="1429.32" rx="24.931" ry="38.521"/>
				</g>
			</g>
		</g>
		<g>
			<g>
				<g>
					
						<ellipse transform="matrix(0.0757 -0.9971 0.9971 0.0757 785.4423 3629.2036)" style="fill:#3B0372;" cx="2350.292" cy="1390.939" rx="160.471" ry="139.119"/>
				</g>
			</g>
			<g>
				<g>
					
						<ellipse transform="matrix(0.0764 -0.9971 0.9971 0.0764 774.4424 3564.9089)" style="fill:#FFFFFF;" cx="2311.419" cy="1364.441" rx="57.355" ry="45.358"/>
				</g>
			</g>
			<g style="opacity:0.2;">
				<g>
					
						<ellipse transform="matrix(0.0768 -0.997 0.997 0.0768 760.0984 3722.8501)" style="fill:#FFFFFF;" cx="2390.467" cy="1450.956" rx="38.815" ry="25.121"/>
				</g>
			</g>
		</g>
		<g>
			<g>
				<path style="fill:#3B0372;" d="M2136.487,1595.62c-135.039,44.319-219.534-60.159-254.027-9.555
					c-18.883,27.703-12.248,191.506,114.176,205.341C2072.863,1799.748,2127.453,1747.785,2136.487,1595.62z"/>
			</g>
			<g>
				<path style="fill:#3B0372;" d="M2096.863,1640.09c-8.454,56.443-24.478,85.885-41.105,101.115
					c-18.448,17-37.543,16.369-47.352,16c-0.088-0.003-0.175-0.007-0.175-0.007c-2.54-0.096-5.164-0.282-7.785-0.555
					c-30.829-3.437-53.675-18.487-69.819-46.073c-7.906-13.524-13.056-28.084-16.304-41.87c-6.339-27.13-5.232-51.702-2.837-61.685
					c8.394,0.666,22.419,5.486,37.311,10.601c29,10.026,65.015,22.417,108.978,24.07
					C2070.823,1642.177,2083.825,1641.615,2096.863,1640.09z"/>
			</g>
			<g>
				<path style="fill:#FC9595;" d="M2055.758,1741.205c-18.448,17-37.543,16.369-47.352,16c-0.088-0.003-0.175-0.007-0.175-0.007
					c-2.54-0.096-5.164-0.282-7.785-0.555c-30.829-3.437-53.675-18.487-69.819-46.073c-7.906-13.524-13.056-28.084-16.304-41.87
					c13.083-5.026,34.879-0.067,44.531,5.588C2004.575,1658.671,2046.651,1693.102,2055.758,1741.205z"/>
			</g>
			<g>
				<path style="fill:#3B0372;" d="M1937.644,1645.752l-4.06,21.213c0,0,24.852,1.468,38.774,36.664
					C1972.359,1703.629,1979.064,1652.054,1937.644,1645.752z"/>
			</g>
		</g>
		<g>
			
				<ellipse transform="matrix(0.7071 -0.7071 0.7071 0.7071 -767.4044 1594.6494)" style="fill:#FF67A0;" cx="1541.21" cy="1723.664" rx="146.647" ry="146.647"/>
		</g>
		<g>
			
				<ellipse transform="matrix(0.7071 -0.7071 0.7071 0.7071 -498.7242 2261.6316)" style="fill:#FF67A0;" cx="2480.669" cy="1732.829" rx="146.647" ry="146.647"/>
		</g>
		<g>
			
				<ellipse transform="matrix(0.7627 -0.6468 0.6468 0.7627 -106.7125 1259.2366)" style="fill:#8DB528;" cx="1662.652" cy="775.039" rx="80.198" ry="45.827"/>
		</g>
		<g>
			
				<ellipse transform="matrix(0.602 -0.7985 0.7985 0.602 -95.0488 1519.7761)" style="fill:#8DB528;" cx="1477.052" cy="855.237" rx="83.233" ry="64.439"/>
		</g>
		<g>
			
				<ellipse transform="matrix(0.6567 -0.7541 0.7541 0.6567 -240.0277 1458.1334)" style="fill:#8DB528;" cx="1481.634" cy="992.719" rx="43.536" ry="27.496"/>
		</g>
		<g>
			<g>
				<path style="fill:#3B0372;" d="M1216.75,2626.878c0.861-1.775,2.093-3.286,3.165-4.928c4.617-7.069-7.042-13.947-11.343-6.63
					c-9.641,16.399,1.36,39.339,10.971,53.326c10.659,15.513,26.111,27.643,42.954,35.874c33.787,16.51,72.898,20.245,108.478,6.9
					c18.078-6.781,35.027-16.925,46.61-32.693c5.666-7.714,11.151-21.658,0.313-27.947c-11.412-6.622-17.811,7.851-23.302,14.669
					c-20.471,25.42-61.427,31.754-91.798,26.757c-19.175-3.155-37.136-10.005-52.392-22.311
					c-8.025-6.473-15.784-14.241-20.813-23.302c-5.303-9.553-5.618-19.683-9.015-29.705c-4.002,1.687-8.003,3.374-12.005,5.061
					c1.055,1.662,2.234,3.13,3.076,4.928C1212.563,2628.829,1215.823,2628.788,1216.75,2626.878L1216.75,2626.878z"/>
			</g>
		</g>
		<g>
			<g>
				<path style="fill:#3B0372;" d="M2505.195,2677.2c-0.074,0.582-0.149,1.164-0.224,1.746c0.661-1.595,1.322-3.19,1.982-4.785
					c-6.912,6.114-0.662,18.617,3.096,24.753c4.455,7.272,9.783,14.148,15.194,20.725c10.735,13.047,24.049,24.959,39.333,32.404
					c14.627,7.125,31.398,10.959,47.703,9.498c7.772-0.697,15.304-2.192,22.539-5.136c7.73-3.146,18.601-8.061,22.159-16.075
					c-7.127,0-14.255,0-21.382,0c0.243,0.371,0.486,0.741,0.729,1.112c2.496,3.808,7.535,6.534,12.165,4.95
					c0.363-0.124,0.726-0.248,1.089-0.373c14.933-5.108,8.842-28.469-6.583-23.878c-6.251,1.861-10.839,6.874-16.85,9.431
					c-5.49,2.335-11.549,3.494-17.483,3.719c-12.064,0.457-24.191-2.419-34.832-8.116c-12.467-6.674-22.865-16.288-32.063-26.933
					c-4.685-5.423-8.782-11.263-13.172-16.916c-2.592-3.338-4.777-5.888-8.319-8.235c-1.616-1.071-3.223-2.356-5.136-2.872
					c-0.778-0.105-1.557-0.209-2.335-0.314c-2.89,0.428-3.112,0.429-0.667,0.005
					C2508.413,2670.549,2505.605,2673.995,2505.195,2677.2L2505.195,2677.2z"/>
			</g>
		</g>
		<g>
			<path style="fill:#39A1FF;" d="M2710.813,1054.631c-188.762-58.017-396.176-92.48-610.465-108.382
				c-21.263-1.604-42.574-2.979-63.929-4.216c-26.488-1.512-53.068-2.75-79.694-3.712c-149.214-5.453-300.444-2.658-449.886,6.782
				c-38.724,2.429-77.356,5.316-115.806,8.661c-35.011,2.979-69.841,6.37-104.486,10.036
				c60.309-234.223,236.102-385.362,444.524-454.102C2141.364,374.234,2678.229,557.772,2710.813,1054.631z"/>
		</g>
		<g>
			<path style="fill:#3B78FF;" d="M1731.072,509.699l-8.707,7.241c-45.781,29.742-87.301,68.145-112.002,116.814
				c-24.702,48.714-30.704,108.611-7.425,157.967c17.139,36.432,46.698,62.417,82.031,81.389
				c-1.329,18.789-1.925,38.174-1.742,58.063c-40.191-0.046-80.381-0.046-120.572-0.092c-18.697,0-40.556,1.879-54.305,12.74
				c-38.999,2.75-78.09,6.049-117.318,9.945c-35.011,2.979-69.841,6.37-104.486,10.036
				C1346.857,729.578,1522.65,578.44,1731.072,509.699z"/>
		</g>
		<g>
			<path style="fill:#3B78FF;" d="M1907.324,931.31h-5.087c-54.672-0.046-109.344-0.092-164.016-0.092
				c45.644-3.025,90.83-4.766,135.557-5.224h0.046C1884.96,927.827,1896.142,929.615,1907.324,931.31z"/>
		</g>
		<g>
			<path style="fill:#D9F1FF;" d="M1873.779,925.994c-44.727,0.458-89.914,2.2-135.557,5.224h-0.321
				c-18.239-0.046-36.432-0.046-54.672-0.046c-0.183-19.889,0.413-39.274,1.742-58.063c42.161,22.685,92.617,35.425,139.956,44.269
				C1841.195,920.403,1857.464,923.29,1873.779,925.994z"/>
		</g>
		<g>
			<path style="fill:#FFFFFF;" d="M1683.229,931.173c18.239,0,36.432,0,54.672,0.046c-16.818,1.146-33.682,2.429-50.638,3.896
				h-0.275c-1.237,0.092-2.475,0.229-3.712,0.321v-0.229C1683.274,933.877,1683.229,932.502,1683.229,931.173z"/>
		</g>
		<g>
			<path style="fill:#FFFFFF;" d="M2500.099,1005.184c-198.616-53.709-406.9-81.481-626.275-79.189h-0.046
				c-16.315-2.704-32.584-5.591-48.853-8.616c-47.339-8.845-97.795-21.585-139.956-44.269
				c12.281-171.44,88.859-297.74,247.146-366.618c74.973-32.629,159.387-35.195,237.018-9.532
				C2379.757,566.571,2511.923,714.272,2500.099,1005.184z"/>
		</g>
		<g>
			<path style="fill:#3B0372;" d="M2710.803,1070.652c-1.577,0-3.169-0.234-4.712-0.708
				c-481.245-147.959-1036.665-130.713-1417.857-90.186c-5.234,0.542-10.4-1.489-13.833-5.469c-3.438-3.979-4.707-9.39-3.394-14.482
				c44.673-173.438,153.838-313.213,315.689-404.204c145.713-81.924,323.872-117.881,501.724-101.226
				c165.19,15.459,317.642,76.563,429.277,172.056c125.523,107.373,197.832,255.073,209.111,427.129
				c0.347,5.264-1.919,10.361-6.059,13.633C2717.883,1069.46,2714.367,1070.652,2710.803,1070.652z M1805.935,919.319
				c285.766,0,598.491,27.876,886.953,113.14c-36.128-363.96-347.402-521.807-607.456-546.143
				c-303.765-28.442-672.182,103.74-777.173,459.101C1454.587,930.52,1624.851,919.319,1805.935,919.319z"/>
		</g>
		<g>
			<path style="fill:#009966;" d="M2031.286,1184.048c-1.787,0.275-3.62,0.55-5.407,0.825
				c-255.946-32.629-532.467-103.57-739.01-219.65c34.783-4.262,69.52-8.066,104.165-11.457
				c39.228-3.896,78.319-7.195,117.318-9.945c-0.55,0.413-1.054,0.825-1.513,1.283c-3.62,3.162-6.599,7.012-8.707,11.732
				c-10.037,22.547,8.248,47.615,28.092,62.325c40.099,29.742,89.822,42.665,138.032,55.543
				C1787.623,1107.562,1910.028,1144.04,2031.286,1184.048z"/>
		</g>
		<g>
			<path style="fill:#16B768;" d="M2025.879,1184.873c1.787-0.275,3.621-0.55,5.407-0.825
				c-121.259-40.007-243.663-76.486-367.03-109.344c-48.21-12.878-97.933-25.801-138.032-55.543
				c-19.844-14.71-38.129-39.778-28.092-62.325c2.108-4.72,5.086-8.57,8.707-11.732c0.459-0.458,0.962-0.871,1.513-1.283
				c58.522-4.124,116.859-7.011,174.922-8.615c1.237,0,2.475-0.046,3.712-0.092c87.667-2.291,174.785-1.65,261.353,2.108
				c29.421,1.191,58.796,2.841,88.08,4.812c23.281,1.558,46.514,3.345,69.703,5.408c205.398,17.918,407.496,53.847,605.974,109.435
				C2830.01,1186.293,2457.068,1239.911,2025.879,1184.873z"/>
		</g>
		<g>
			<path style="fill:#3B0372;" d="M2344.236,1222.107c-65.649,0-133.716-3.032-199.663-8.545
				c-334.897-28.008-650.381-113.428-865.561-234.355c-6.045-3.398-9.224-10.293-7.881-17.095
				c1.348-6.802,6.909-11.968,13.789-12.813c509.385-62.266,991.011-31.274,1431.504,92.134c2.896,0.811,5.503,2.417,7.529,4.644
				c40.552,44.507,25.137,78.14,12.344,94.229C2689.807,1198.747,2526.423,1222.107,2344.236,1222.107z M1339.68,975.227
				c209.17,106.045,499.8,180.625,807.563,206.367c317.144,26.509,523.765-10.737,563.945-61.26
				c4.546-5.713,16.343-20.547-7.988-49.287C2282.727,953.938,1824.294,921.755,1339.68,975.227z"/>
		</g>
		<g>
			<polygon style="fill:#16B768;" points="1935.324,797.953 2031.562,614.644 2150.712,747.543 2205.705,678.802 2279.029,820.867 
							"/>
		</g>
	</g>
</g>
</svg>
